<svg width="811" height="288" viewBox="0 0 811 288" fill="none" xmlns="http://www.w3.org/2000/svg">
<path d="M210.267 1.86625C209.867 2.93291 208.4 3.46625 206.933 3.19958C204 2.39958 202.267 4.39958 200.133 10.9329C198.533 15.7329 192.667 21.0662 190.933 19.1996C190.4 18.6662 190.667 17.9996 191.6 17.7329C192.533 17.4662 192.933 16.3996 192.533 15.3329C192.133 14.3996 192.533 13.1996 193.467 12.5329C194.667 11.8662 194.8 12.2663 194.267 13.7329C193.867 15.0662 193.867 15.9996 194.4 15.9996C195.733 15.8662 201.467 2.39958 200.533 1.46625C200.133 1.06625 199.2 1.73291 198.533 3.06625C197.733 4.26625 196.133 5.33292 194.8 5.33292C193.467 5.33292 189.333 9.59958 184.933 15.5996C177.067 26.3996 165.067 37.1996 155.467 42.2662C148.533 45.8662 149.867 46.3996 168.667 47.1996C176.8 47.4662 186 48.1329 189.2 48.5329C193.467 49.1996 195.467 48.7996 196.533 47.4662C197.333 46.2662 201.2 45.1996 205.6 44.7996C214.533 43.9996 221.6 40.5329 229.2 33.3329C234.267 28.5329 236.4 25.4662 233.467 27.3329C231.2 28.6662 230.533 25.5996 232.667 23.5996C233.733 22.3996 234.667 20.7996 234.667 19.8662C234.667 19.0662 233.2 19.8662 231.333 21.8662C229.6 23.7329 227.733 25.3329 227.2 25.3329C226.667 25.3329 227.6 23.8662 229.333 21.9996C232.667 18.5329 231.733 15.0662 227.867 16.6662C225.733 17.5996 217.2 28.5329 215.733 32.3996C214.933 34.1329 213.867 34.5329 212.133 33.9996C210.4 33.4662 208.533 34.1329 206.8 35.8662C203.467 39.1996 200.933 39.4662 198.8 36.7996C197.467 35.3329 197.733 34.6662 199.733 34.1329C201.2 33.5996 203.333 33.7329 204.667 34.2662C206.667 34.9329 206.933 34.6662 206.267 32.7996C205.733 31.4662 205.333 30.2662 205.333 29.8662C205.333 29.5996 204.4 29.7329 203.333 30.1329C199.467 31.5996 198.4 29.1996 201.467 25.8662C203.067 24.1329 204.933 22.6662 205.467 22.6662C207.467 22.6662 214.8 14.6662 214.267 13.0662C213.867 11.9996 213.467 12.2663 213.467 13.5996C213.333 14.9329 212.8 15.9996 212 15.9996C210 15.9996 210.4 12.5329 212.667 10.6662C213.733 9.73292 214.667 8.13292 214.667 7.19958C214.667 6.13292 215.467 5.73292 216.667 6.13292C218.933 7.06625 219.067 5.99958 217.333 1.99958C216.4 -0.400417 216.267 -0.533752 215.333 1.59958C214.133 4.53292 211.333 4.79958 212.533 1.99958C212.933 0.932915 212.667 -0.000415802 212.133 -0.000415802C211.467 -0.000415802 210.667 0.799583 210.267 1.86625ZM222.667 30.5329C221.333 33.1996 217.333 34.5329 217.333 32.2662C217.333 30.5329 219.2 28.3996 221.333 27.7329C224.133 26.7996 224.4 27.3329 222.667 30.5329Z" fill="#84888e" fill-opacity="0.7"/>
<path d="M216.533 19.0667C214.4 21.3333 211.2 24.4 209.333 25.6L206 28L209.467 26.8C212.933 25.6 217.467 21.7333 221.2 16.9333C224.4 12.9333 220.667 14.5333 216.533 19.0667Z" fill="#84888e" fill-opacity="0.7"/>
<path d="M525.067 34.2663C526.001 34.6663 527.201 34.533 527.601 34.133C528.134 33.733 527.334 33.333 525.867 33.4663C524.401 33.4663 524.001 33.8663 525.067 34.2663Z" fill="#84888e" fill-opacity="0.7"/>
<path d="M489.067 35.6008C490.667 35.8674 493.067 35.8674 494.401 35.6008C495.601 35.2008 494.267 34.9341 491.334 35.0674C488.401 35.0674 487.334 35.3341 489.067 35.6008Z" fill="#84888e" fill-opacity="0.7"/>
<path d="M515.734 35.6008C516.534 36.0008 517.067 36.6675 516.667 37.3342C516.267 37.8675 517.201 38.1342 518.667 37.7342C523.067 36.5342 522.934 35.0675 518.267 35.0675C515.867 34.9342 514.801 35.2008 515.734 35.6008Z" fill="#84888e" fill-opacity="0.7"/>
<path d="M507.734 42.2663C508.667 42.6663 509.867 42.533 510.267 42.133C510.8 41.733 510 41.333 508.534 41.4663C507.067 41.4663 506.667 41.8663 507.734 42.2663Z" fill="#84888e" fill-opacity="0.7"/>
<path d="M498.667 44.0007C497.467 44.8007 497.333 45.334 498.267 45.334C499.067 45.334 500.267 44.6673 500.667 44.0007C501.733 42.4007 501.2 42.4007 498.667 44.0007Z" fill="#84888e" fill-opacity="0.7"/>
<path d="M128.667 49.4662C123.6 50.9328 116 52.3995 112 52.7995C104.4 53.5995 92.6667 58.3995 87.6 62.6662C86 63.9995 76.2667 69.4662 66 74.6662C39.6 88.2662 40.1333 87.9995 39.3333 89.3329C38.9333 89.9995 30 90.1329 19.3333 89.8662C8.26667 89.5995 0 89.8662 0 90.5329C0 91.1995 1.6 91.7328 3.73333 91.5995C13.0667 91.1995 22.6667 92.1329 22.6667 93.3329C22.6667 93.9995 21.0667 95.4662 19.0667 96.5329C16.9333 97.5995 16.1333 98.5329 17.0667 98.6662C18 98.6662 20 97.9995 21.6 97.1995C25.0667 95.3329 26.2667 96.6662 23.6 99.5995C19.8667 103.866 19.6 108.666 22.6667 120.266C26.4 134.4 29.4667 139.866 36.6667 144.4C41.7333 147.6 48.9333 154.266 44.4 151.6C42.6667 150.533 36.6667 153.066 30.2667 157.6C24.8 161.6 26.6667 161.866 33.4667 158.133C36.6667 156.4 41.6 154.266 44.4 153.333L49.6 151.733L43.0667 147.2C31.2 138.8 27.8667 134.266 26.1333 123.333L25.2 118L27.8667 121.333C29.3333 123.2 32.1333 127.733 34 131.6C38.4 140.266 41.7333 143.2 47.0667 143.466C51.0667 143.6 54.6667 145.466 68.2667 154.4C71.4667 156.533 75.8667 157.866 81.3333 158.266C86.4 158.8 89.8667 159.733 90.2667 160.8C91.0667 162.933 96 163.333 96 161.333C96 158.533 98.5333 160.133 99.7333 163.866C100.933 167.2 101.867 167.866 107.6 168.4C114.667 169.333 126.8 168.933 128.8 167.733C131.2 166.4 142.933 166.533 142 168C141.467 168.8 142.8 169.333 145.2 169.333C147.467 169.333 149.333 169.866 149.333 170.666C149.333 171.333 147.733 172 145.867 172C144 172 142.8 172.533 143.333 173.333C143.867 174.133 144.533 174.533 145.067 174.133C145.6 173.866 149.333 174.266 153.333 174.933C157.333 175.6 164.8 176.133 170 176.133C180.533 176.133 182.667 174.533 182.667 167.2V162.933L189.067 163.733C192.533 164.133 196.667 165.2 198.133 166.266C200.667 167.866 201.067 167.866 201.733 166C202.8 163.466 205.867 163.466 208 166C209.467 167.866 210 167.866 212.933 166C214.667 164.8 216.8 164.133 217.733 164.266C218.667 164.533 220.533 163.466 222.133 162C223.6 160.533 226.533 158 228.667 156.4L232.533 153.333L237.067 156.133C241.867 158.933 244.133 158.666 241.6 155.6C239.733 153.466 240.8 152 244.267 152C245.867 152 246.4 152.533 245.867 153.6C245.2 154.666 245.867 154.8 248.133 154.133C254.667 152.266 270.8 151.866 272.933 153.466C274.667 154.933 274.667 155.333 272.533 156.933C268.933 159.6 271.333 160.666 277.2 158.933C284 156.8 288.133 156.933 291.467 159.333C293.067 160.4 294.667 160.933 295.067 160.533C296 159.466 315.067 166 319.333 168.8C321.2 170 322.667 171.866 322.667 172.8C322.667 175.066 322.8 175.066 327.6 173.2C333.2 171.066 339.733 173.866 345.333 180.8C348.933 185.333 350.667 186.4 353.067 185.866C357.6 184.933 371.733 192 373.6 196.266C374.8 198.8 377.2 200.4 382.267 202.133C389.333 204.533 389.333 204.533 389.333 210.266C389.333 216.533 389.6 216.666 393.467 214.533C395.6 213.466 396.8 213.6 398.533 215.2C399.867 216.4 401.467 217.333 402.133 217.333C403.467 217.333 412 224.133 416.667 228.933C418.533 230.933 421.2 232 424 232C428.4 232 444 238.4 444 240.266C444 240.8 444.667 241.333 445.467 241.333C446.267 241.333 446.667 240.4 446.133 239.333C445.2 236.666 445.6 236.8 449.333 240C453.067 243.333 454.4 243.333 454.133 240.4C454.133 238.8 455.067 237.866 457.067 237.6C458.667 237.333 460 237.733 460 238.533C460 239.333 459.2 240 458.4 240C457.467 240 458.667 241.2 461.067 242.666C463.333 244.133 465.333 246 465.333 246.666C465.333 247.466 466 247.733 466.667 247.333C467.467 246.8 468.8 247.066 469.733 247.733C470.667 248.4 472.8 249.333 474.667 249.733C477.867 250.533 477.733 250.4 474 247.333C470.533 244.533 470.4 244.133 472.667 244C474.267 244 472 242.133 466.667 239.2C456.8 233.733 456.667 233.6 457.6 232.666C458.933 231.333 474.267 237.2 487.067 243.733C493.733 247.333 501.467 250.933 504 251.866C506.533 252.8 510.667 254.533 513.067 255.6C515.467 256.666 518.133 257.333 518.933 257.066C519.733 256.8 518.533 255.733 516.267 254.8C512 253.066 510.533 250.666 513.733 250.666C514.533 250.666 518.533 251.6 522.4 252.533C526.133 253.6 529.333 254 529.333 253.333C529.333 252.8 526.133 251.6 522.4 250.666C514 248.8 508 246.4 508 245.066C508 244.4 506.8 244 505.333 244C503.867 244 502.667 243.333 502.667 242.666C502.667 241.866 501.467 241.333 500.133 241.333C498.667 241.333 492.267 238.933 486 236C476.667 231.733 474.667 230.266 475.867 228.8C477.067 227.333 476.667 227.2 474 227.733C470.667 228.266 469.2 226 472.4 224.933C474.533 224.133 474.533 224.266 461.6 218C451.6 213.066 450.533 212.266 449.2 207.466C448.4 204.666 448.133 202.133 448.4 201.733C449.333 200.933 459.2 206.133 461.2 208.533C462.267 209.733 465.067 210.666 467.867 210.666C470.667 210.666 474 211.6 475.467 212.666C478.8 215.2 481.467 215.2 480.533 212.666C480 211.333 480.533 210.666 482.4 210.666C485.067 210.666 487.467 214.133 485.333 214.933C484.667 215.2 484.4 216.666 484.8 218.133C485.333 220.4 486.933 221.2 491.6 221.866C494.933 222.266 502 224.666 507.2 227.2C512.4 229.733 518.533 232.133 520.667 232.533L524.667 233.333L521.067 231.733C518.933 230.8 517.333 229.6 517.333 229.066C517.333 227.6 524.533 229.333 525.067 230.933C525.333 231.466 526.8 232 528.133 232C529.6 232 530.533 232.533 530 233.333C529.6 234 528.267 234.133 526.933 233.733C525.2 233.2 525.2 233.466 527.333 235.066C528.8 236.266 530.267 236.533 530.533 235.866C530.8 235.066 531.733 235.733 532.8 237.2C533.867 238.533 536.933 240.533 539.733 241.466C542.4 242.266 545.467 243.6 546.4 244.4C547.333 245.066 548.4 245.466 548.8 245.066C549.2 244.666 546.133 242.533 542.133 240.266C538.133 238 534.533 235.6 534.133 234.8C533.067 233.2 539.067 231.733 542.267 232.8C544 233.333 544.267 233.2 542.8 232.266C541.333 231.2 541.333 230.933 542.8 230.266C543.867 229.866 543.067 229.466 541.067 229.466C539.067 229.333 537.067 228.666 536.667 228C536.267 227.2 534.667 226.666 533.333 226.666C530.133 226.666 528.533 224 530.8 222.533C532 221.733 532.133 221.333 531.067 221.333C530.267 221.333 529.067 222 528.667 222.666C528.133 223.6 526.933 223.6 525.2 222.666C523.733 221.866 522.933 220.666 523.333 219.866C523.867 219.2 523.333 218.666 522.267 218.666C521.2 218.666 518.8 215.733 516.933 212.133C513.333 205.6 508.4 202.933 503.333 204.8C502 205.333 501.333 204.8 501.333 203.466C501.333 200.8 497.467 200.666 496.533 203.333C496 204.4 495.2 204.933 494.533 204.533C493.867 204.133 493.6 203.2 494 202.533C494.533 201.866 494.133 201.333 493.2 201.333C492.4 201.333 492 200.266 492.4 198.666C493.333 195.2 491.333 195.2 488.933 198.666C487.333 200.933 486.8 201.066 485.467 199.6C484.667 198.533 484.4 197.466 484.8 196.933C486.267 195.466 477.333 192 474.267 192.666C472.267 193.2 470.533 192.8 469.467 191.466C468.533 190.4 466.933 189.866 465.733 190.266C464.267 190.8 463.867 190.266 464.267 188C464.533 185.6 465.6 184.8 469.733 184.4C474.933 183.866 475.867 184.933 473.067 187.866C471.067 189.866 471.6 189.733 479.733 186.133C485.067 183.6 487.067 181.333 483.867 181.333C483.067 181.333 482.667 180.533 483.067 179.466C483.467 178.4 482.933 176.8 481.867 176C480.8 175.066 480 173.466 480 172.4C480 171.066 479.067 170.8 477.067 171.333C474.667 172 474.4 171.866 476 170.8C477.733 169.6 477.6 169.2 475.333 167.466C473.867 166.266 471.867 165.333 470.8 165.333C469.333 165.333 469.6 165.866 471.467 167.333C474 169.2 474 169.2 471.467 169.333C469.067 169.333 469.067 169.466 471.333 172C473.333 174.133 473.333 174.666 471.733 174.666C470.667 174.666 467.867 176.4 465.6 178.666C460.8 183.2 457.733 183.6 453.867 180.533C451.467 178.533 451.467 178.533 455.2 179.066C458.8 179.6 462.667 177.6 462.667 175.333C462.667 174.4 452 175.6 448.533 176.933C446.8 177.6 447.067 176.133 450.133 167.733C450.933 165.466 454.4 165.866 456.4 168.533C457.067 169.6 457.733 169.333 458.533 168C459.333 166.8 459.333 165.733 458.533 165.2C457.867 164.8 457.6 163.466 458 162.4C458.667 160.666 458 160.533 453.733 161.333C450.933 161.866 447.6 162.8 446.4 163.333C443.333 164.533 435.733 161.2 436.667 158.933C437.067 157.866 437.333 156.4 437.333 155.466C437.333 154.533 438.933 153.2 441.067 152.4C444.4 151.2 444.533 150.933 442 149.866C440.533 149.333 437.867 147.466 436 145.733C434.133 144 432.133 142.666 431.333 142.666C430.667 142.666 430.933 143.333 432 144C433.6 145.066 433.733 145.733 432.267 148C430.8 150.4 430.933 150.666 433.6 150.8C435.333 150.8 436 151.2 435.067 151.466C434.133 151.866 433.867 153.066 434.267 154.133C434.667 155.2 434.4 156 433.6 156C432.933 156 431.867 155.066 431.467 153.866C430.933 152.533 429.733 152.133 428.133 152.666C426.667 153.066 425.2 152.8 424.667 152C424.267 151.333 424.8 150.666 425.867 150.666C427.067 150.666 428 150 428 149.2C428 148.533 426.933 148 425.733 148.133C424.4 148.266 422.267 148 420.933 147.333C419.6 146.8 417.733 147.066 416.533 148.133C414.667 149.6 414 149.466 411.867 146.8C410.533 145.066 409.733 143.066 410.133 142.4C410.667 141.6 410.267 140.533 409.333 140C406.267 138.133 410.267 133.733 416.667 132C420 131.066 422.667 129.733 422.667 129.066C422.667 128.4 421.6 128.133 420.4 128.533C418.667 129.066 417.2 127.866 415.067 124.133C412 118.8 404.4 114.133 400.933 115.466C399.867 115.866 397.6 114.4 395.333 111.866C392.133 108 391.6 107.733 390.4 109.733C389.733 110.933 388.533 112 387.6 112C384.8 111.866 378.667 105.6 378.667 102.8C378.667 100.533 378 100.133 374.667 100.8C370.133 101.733 369.867 101.333 372.667 95.9995C374.667 92.2662 374.533 92.1329 370.933 91.7328C368.4 91.4662 367.333 90.5329 367.333 88.7995C367.333 87.4662 366.4 85.8662 365.333 85.3329C360.533 82.9328 352.267 80.1329 347.333 79.3329C342.667 78.5329 342.267 78.2662 344.4 76.6662C347.467 74.5329 347.333 71.9995 344 71.9995C341.067 71.9995 334.133 65.5995 334 62.6662C334 61.5995 333.067 60.9328 332 61.1995C327.733 62.3995 319.867 61.8662 318.933 60.3995C317.2 57.7328 308.933 63.4662 309.733 66.6662C310.133 68.2662 309.733 69.3329 308.667 69.3329C307.733 69.3329 306.533 70.2662 306.133 71.4662C305.467 73.3329 304 73.5995 296.8 72.7995C291.467 72.2662 287.867 72.3995 287.333 73.3329C286.8 74.1329 285.2 73.9995 282.933 72.7995C279.2 70.9328 270 68.9328 258 67.3329C254.267 66.7995 250.4 65.3329 249.067 63.9995C247.6 62.3995 243.867 61.1995 239.067 60.6662C234.8 60.1329 230.8 59.1995 230 58.6662C228.267 57.3329 222.133 56.2662 208.933 54.6662C203.2 53.9995 197.867 53.0662 197.067 52.5329C196.4 51.9995 186.267 51.4662 174.667 51.1995C159.467 50.9328 152.133 50.1328 148.533 48.6662C142.533 46.1328 140.4 46.2662 128.667 49.4662ZM148.667 52.6662C149.467 52.9328 146.267 53.1995 141.6 53.1995C136.933 53.3329 133.467 52.7995 133.867 52.1328C134.533 51.0662 145.2 51.4662 148.667 52.6662ZM27.6 103.866C25.6 108.133 24.5333 109.6 24.2667 108C23.7333 105.2 27.4667 97.3329 29.3333 97.3329C30 97.3329 29.2 100.266 27.6 103.866ZM32 105.333C32 106 31.3333 106.666 30.5333 106.666C29.8667 106.666 29.6 106 30 105.333C30.4 104.533 31.0667 104 31.4667 104C31.7333 104 32 104.533 32 105.333ZM33.3333 116.8C33.3333 123.066 30.9333 123.733 28.6667 118.133C26 111.733 26.1333 110.933 30 111.733C32.8 112.266 33.3333 113.066 33.3333 116.8ZM388 128C388 128.666 387.733 129.333 387.467 129.333C387.067 129.333 386.4 128.666 386 128C385.6 127.2 385.867 126.666 386.533 126.666C387.333 126.666 388 127.2 388 128ZM404 130.133C404 131.2 403.467 131.733 402.667 131.333C402 130.933 401.333 129.6 401.333 128.533C401.333 127.466 402 126.933 402.667 127.333C403.467 127.733 404 129.066 404 130.133ZM378.4 155.733C378.933 158.933 383.467 162.666 386.933 162.666C389.467 162.666 390 163.333 391.2 168.266C391.867 171.2 391.6 172 389.867 172C388.667 172 388 171.2 388.4 170.133C389.2 168.266 385.6 164.666 380.933 162.666C379.333 161.866 376.8 160.533 375.333 159.733C373.867 158.8 372.533 157.866 372.267 157.733C372 157.733 372.667 156.266 373.6 154.8C375.733 151.466 377.867 151.866 378.4 155.733ZM400.667 156.266C404.933 158.133 404.933 159.466 400.667 160.266C398.8 160.666 397.333 160.533 397.333 159.866C397.333 159.333 396.933 158 396.533 156.8C395.6 154.266 396.133 154.133 400.667 156.266ZM387.467 159.333C389.6 160.933 389.6 161.2 387.867 161.333C386.667 161.333 384.933 160.4 384 159.333C381.867 156.8 384 156.8 387.467 159.333ZM178.4 165.866C179.067 169.066 176.533 170.666 171.067 170.666C167.067 170.666 166.667 170.266 166.667 166.933C166.667 161.866 167.067 161.6 172.933 162.533C176.4 163.066 178.133 164.133 178.4 165.866ZM117.067 164.266C116.133 166.8 112 167.2 112 164.8C112 163.466 113.2 162.666 114.8 162.666C116.4 162.666 117.333 163.333 117.067 164.266ZM164 164.266C164 166.533 161.333 170.533 161.333 168.4C161.333 167.6 160.933 166 160.533 164.8C160 163.333 160.4 162.666 161.867 162.666C163.067 162.666 164 163.466 164 164.266ZM408 174C409.733 175.066 409.067 181.333 407.2 181.333C406.133 181.333 405.333 180.4 405.333 179.333C405.333 178.266 404.933 177.333 404.4 177.333C403.733 177.333 401.867 176.133 400 174.666L396.667 172.133L401.867 172.666C404.667 173.066 407.467 173.6 408 174ZM444 176C444 177.066 440.667 178.666 438.533 178.666C437.867 178.666 437.333 177.866 437.333 176.8C437.333 175.733 438.667 174.933 440.667 174.933C442.533 174.933 444 175.466 444 176ZM424.133 184.533C426.4 183.2 432.667 185.333 436.4 188.8C438.4 190.666 440 191.466 440 190.666C440 190 440.667 189.333 441.333 189.333C443.867 189.333 442.667 193.6 440 194.266C436.667 195.2 436.667 195.333 440.133 200.266C443.733 205.333 442.533 206.4 437.067 202.8C434.667 201.333 430.933 199.2 428.667 198.133C426.533 197.066 422.933 194.266 420.667 192L416.667 187.733L420.667 188.533C423.867 189.2 423.333 188.666 418.4 186.266C411.2 182.666 411.2 180.4 418.267 183.333C420.8 184.4 423.467 184.933 424.133 184.533ZM478 196C478.4 196.666 477.867 197.333 476.8 197.333C475.733 197.333 474.4 196.666 474 196C473.6 195.2 474.133 194.666 475.2 194.666C476.267 194.666 477.6 195.2 478 196ZM432.533 216.666C434.4 218.133 434.667 218.666 433.2 218.666C432.133 218.666 430.133 217.733 428.8 216.666C426.933 215.2 426.667 214.666 428.133 214.666C429.2 214.666 431.2 215.6 432.533 216.666ZM445.2 222.8C449.333 224.266 456 229.333 456 231.066C456 232.266 438.8 223.466 438.667 222.266C438.667 220.933 440.267 221.066 445.2 222.8Z" fill="#84888e" fill-opacity="0.7"/>
<path d="M400.666 112C401.066 112.666 401.999 113.333 402.799 113.333C403.466 113.333 403.999 112.666 403.999 112C403.999 111.2 403.066 110.666 401.866 110.666C400.799 110.666 400.266 111.2 400.666 112Z" fill="#84888e" fill-opacity="0.7"/>
<path d="M427.334 140C427.734 140.666 428.401 141.333 428.801 141.333C429.068 141.333 429.334 140.666 429.334 140C429.334 139.2 428.668 138.666 427.868 138.666C427.201 138.666 426.934 139.2 427.334 140Z" fill="#84888e" fill-opacity="0.7"/>
<path d="M414.666 141.333C412.933 142.399 413.066 142.666 415.066 142.666C416.266 142.666 417.333 141.999 417.333 141.333C417.333 139.733 417.199 139.733 414.666 141.333Z" fill="#84888e" fill-opacity="0.7"/>
<path d="M50.666 148.534C50.666 150.8 52.3993 152.134 58.3993 154.134C60.666 155.067 62.666 155.2 62.666 154.534C62.666 153.867 61.866 153.334 60.9327 153.334C59.9993 153.334 57.7327 151.867 55.7327 150C51.5993 146.134 50.666 145.867 50.666 148.534Z" fill="#84888e" fill-opacity="0.7"/>
<path d="M294.666 164.267C294.666 166.4 295.066 166.533 297.733 165.2C301.866 163.067 301.866 163.067 297.999 162.4C295.333 161.867 294.666 162.267 294.666 164.267Z" fill="#84888e" fill-opacity="0.7"/>
<path d="M794.667 173.6C790.667 177.334 784 182.4 780 185.067C776 187.734 766.933 193.6 759.867 198.267C752.8 202.934 746.267 206.667 745.467 206.667C744.667 206.667 744 207.2 744 208C744 208.667 743.467 209.334 742.8 209.334C742.133 209.334 737.733 211.6 733.067 214.267C728.533 216.934 721.6 220.667 717.867 222.667C714.133 224.534 710.133 226.8 709.067 227.734C706.4 229.867 683.067 237.334 678.667 237.334C676.8 237.334 674.4 238 673.333 238.667C670.133 240.667 679.467 240.267 688 238C696.8 235.6 697.333 235.6 697.333 237.334C697.333 238 696.133 238.667 694.8 238.667C693.333 238.667 691.733 239.2 691.333 240C690.933 240.667 688.533 241.467 686.267 241.467C682.267 241.734 682.133 241.734 685.733 242.267C688.133 242.667 689.333 243.6 689.333 245.334C689.333 247.067 690.533 248.267 692.667 248.8C695.867 249.6 697.333 252 694.667 252C692.4 252 693.2 254.934 696.533 258C698.267 259.6 699.867 261.6 700.133 262.534C700.533 263.6 705.067 264.667 711.867 265.467C721.6 266.534 724.533 266.4 733.867 264C739.733 262.4 745.333 260.534 746.267 259.867C747.867 258.4 755.467 256.134 769.733 252.534C794 246.534 788.4 240.4 760.8 242.8C738.8 244.667 735.333 244.8 734.667 243.467C734.267 242.667 735.867 241.734 738 241.067C740.267 240.534 744.267 238.934 746.933 237.6C750.667 235.6 751.467 234.667 750.267 233.467C749.067 232.267 749.733 232.134 752.8 232.8C755.6 233.334 758.667 232.667 762.4 230.8C765.467 229.2 771.333 226.667 775.6 225.2C779.867 223.6 784.933 221.067 786.933 219.467C788.933 217.867 792 215.6 793.867 214.4C799.2 210.667 804.933 198.934 805.867 190C806.4 185.6 807.733 180.134 809.067 177.734C811.2 173.6 811.067 173.334 808 170C806.267 168.134 804.267 166.667 803.467 166.667C802.667 166.8 798.667 169.867 794.667 173.6ZM748.667 210.667C749.067 211.334 748.8 212 748.133 212C747.333 212 746.667 211.334 746.667 210.667C746.667 209.867 746.933 209.334 747.2 209.334C747.6 209.334 748.267 209.867 748.667 210.667ZM733.333 220C733.333 220.667 732.8 221.334 732 221.334C731.333 221.334 730.667 220.667 730.667 220C730.667 219.2 731.333 218.667 732 218.667C732.8 218.667 733.333 219.2 733.333 220ZM726.667 222.667C726.667 223.334 726 224 725.2 224C724.533 224 724.267 223.334 724.667 222.667C725.067 221.867 725.733 221.334 726.133 221.334C726.4 221.334 726.667 221.867 726.667 222.667ZM716 230.667C716 231.334 714.933 232 713.733 232C711.733 232 711.6 231.734 713.333 230.667C715.867 229.067 716 229.067 716 230.667ZM713.333 236C713.333 236.667 712.8 237.334 712 237.334C711.333 237.334 710.667 236.667 710.667 236C710.667 235.2 711.333 234.667 712 234.667C712.8 234.667 713.333 235.2 713.333 236ZM744 236.667C744 238.8 712.133 246 710.4 244.267C709.867 243.734 713.067 242.4 717.733 241.467C722.267 240.4 726.667 239.2 727.333 238.534C729.333 237.067 744 235.334 744 236.667ZM708 238.667C708 239.334 706.933 240 705.733 240C703.733 240 703.6 240.267 705.333 241.334C706.8 242.267 706.133 242.4 703.067 241.867C699.2 241.067 698.667 241.334 698.667 243.734C698.667 246.134 698.267 246.267 695.333 244.934C691.467 243.067 690.933 241.334 694.4 241.334C695.6 241.334 699.067 240.4 702 239.334C704.933 238.267 707.467 237.467 707.733 237.334C707.867 237.334 708 237.867 708 238.667ZM700 253.334C700 254 699.467 254.667 698.667 254.667C698 254.667 697.333 254 697.333 253.334C697.333 252.534 698 252 698.667 252C699.467 252 700 252.534 700 253.334Z" fill="#84888e" fill-opacity="0.7"/>
<path d="M461.734 168.933C462.934 169.199 464.801 169.199 465.734 168.933C466.534 168.533 465.601 168.266 463.334 168.266C461.201 168.266 460.401 168.533 461.734 168.933Z" fill="#84888e" fill-opacity="0.7"/>
<path d="M202.266 172.267C202 173.467 198.8 174 192.533 174C184.266 174 182.8 174.4 179.333 177.6C175.866 180.8 175.733 181.6 177.066 184.533C177.866 186.533 179.2 188 179.866 188C184.4 188 193.066 204.533 196.8 220.267C199.2 231.2 201.333 233.733 201.333 226.267C201.333 223.733 201.733 221.467 202.133 221.067C202.533 220.533 205.2 222.533 208 225.467C212.4 230.133 213.066 231.6 214 239.6C214.8 247.2 215.2 248.267 216.533 246.4C217.466 245.067 219.866 243.467 221.733 242.8C223.733 242 225.333 240.533 225.333 239.333C225.333 236.133 228 237.067 228.266 240.267C228.533 244.667 228.4 245.733 227.466 248.133C226.666 249.867 227.6 250.533 231.466 251.067C234.133 251.6 236.933 251.6 237.733 251.067C238.4 250.667 241.333 250.267 244.133 250.133C247.333 249.867 250.533 248.667 252.4 246.933C254.133 245.333 256.8 244 258.4 244C260 244 262 242.667 262.8 241.067C265.066 236.8 264.666 222.667 262.133 218C260.933 215.733 260 212.533 260 210.667C260 207.2 256.4 196.4 254.266 193.733C253.6 192.8 248.666 189.733 243.2 186.667C237.733 183.733 233.333 180.667 233.333 180C233.333 179.2 232.666 178.667 231.866 178.667C231.2 178.667 230.933 179.2 231.333 180C231.733 180.667 231.2 181.333 230 181.333C228.8 181.333 228.133 180.8 228.533 180.133C229.466 178.667 224.8 177.333 217.733 177.333C214.666 177.333 211.733 176.667 211.333 176C210.933 175.2 209.333 174.667 207.866 174.667C206.533 174.667 205.333 173.733 205.333 172.667C205.333 170.267 203.066 170 202.266 172.267Z" fill="#84888e" fill-opacity="0.7"/>
<path d="M483.334 190.667C482.934 191.333 483.067 192 483.867 192C484.534 192 485.6 191.333 486 190.667C486.4 189.867 486.267 189.333 485.467 189.333C484.8 189.333 483.734 189.867 483.334 190.667Z" fill="#84888e" fill-opacity="0.7"/>
<path d="M480.533 221.333C480.533 222.8 481.333 224 482.267 224C483.733 224 483.733 223.333 482.667 221.333C481.867 219.867 481.067 218.667 480.933 218.667C480.667 218.667 480.533 219.867 480.533 221.333Z" fill="#84888e" fill-opacity="0.7"/>
<path d="M488 232C488 232.666 488.667 233.333 489.467 233.333C490.133 233.333 490.4 232.666 490 232C489.6 231.2 488.933 230.666 488.533 230.666C488.267 230.666 488 231.2 488 232Z" fill="#84888e" fill-opacity="0.7"/>
<path d="M513.334 232.933C513.334 233.6 514.534 235.333 516.001 236.667C517.467 238 518.667 238.533 518.667 237.733C518.667 237.067 517.467 235.333 516.001 234C514.534 232.667 513.334 232.133 513.334 232.933Z" fill="#84888e" fill-opacity="0.7"/>
<path d="M551.334 236C551.734 236.666 552.667 237.333 553.467 237.333C554.134 237.333 554.667 236.666 554.667 236C554.667 235.2 553.734 234.666 552.534 234.666C551.467 234.666 550.934 235.2 551.334 236Z" fill="#84888e" fill-opacity="0.7"/>
<path d="M202.134 241.467C203.334 248.8 204 249.867 205.467 248.4C207.067 246.8 205.734 240.667 203.2 238.533C201.6 237.2 201.467 237.733 202.134 241.467Z" fill="#84888e" fill-opacity="0.7"/>
<path d="M556.666 238.667C557.066 239.333 557.733 240 558.133 240C558.4 240 558.666 239.333 558.666 238.667C558.666 237.867 558 237.333 557.2 237.333C556.533 237.333 556.266 237.867 556.666 238.667Z" fill="#84888e" fill-opacity="0.7"/>
<path d="M664.001 240C660.801 241.066 660.934 241.066 665.067 241.2C667.334 241.333 669.334 240.666 669.334 240C669.334 238.533 668.667 238.533 664.001 240Z" fill="#84888e" fill-opacity="0.7"/>
<path d="M566.934 241.866C567.867 242.933 569.067 243.466 569.734 243.066C571.2 242.133 569.467 240 567.2 240C565.6 240 565.6 240.266 566.934 241.866Z" fill="#84888e" fill-opacity="0.7"/>
<path d="M532.668 242.667C533.068 243.333 534.134 244 534.801 244C535.601 244 535.734 243.333 535.334 242.667C534.934 241.867 533.868 241.333 533.201 241.333C532.401 241.333 532.268 241.867 532.668 242.667Z" fill="#84888e" fill-opacity="0.7"/>
<path d="M556.268 243.466C557.601 244.8 558.934 245.466 559.468 245.066C559.868 244.533 558.801 243.466 557.068 242.666C554.134 241.066 554.134 241.066 556.268 243.466Z" fill="#84888e" fill-opacity="0.7"/>
<path d="M655.066 242.267C656.266 242.533 658.133 242.533 659.066 242.267C659.866 241.867 658.933 241.6 656.666 241.6C654.533 241.6 653.733 241.867 655.066 242.267Z" fill="#84888e" fill-opacity="0.7"/>
<path d="M582.667 244.533C583.467 245.6 585.067 246.133 586.134 245.733C588.667 244.8 587.067 242.667 583.734 242.667C581.467 242.667 581.334 243.067 582.667 244.533Z" fill="#84888e" fill-opacity="0.7"/>
<path d="M457.334 245.2C457.334 245.867 458.001 246.933 458.667 247.333C459.467 247.733 460.001 247.6 460.001 246.8C460.001 246.133 459.467 245.067 458.667 244.667C458.001 244.267 457.334 244.4 457.334 245.2Z" fill="#84888e" fill-opacity="0.7"/>
<path d="M592 246.4C592 247.733 596.4 249.333 600.667 249.333C604.4 249.333 601.467 247.066 596.4 246C593.867 245.466 592 245.6 592 246.4Z" fill="#84888e" fill-opacity="0.7"/>
<path d="M680 248C680 248.666 680.667 249.333 681.333 249.333C682.133 249.333 682.667 248.666 682.667 248C682.667 247.2 682.133 246.666 681.333 246.666C680.667 246.666 680 247.2 680 248Z" fill="#84888e" fill-opacity="0.7"/>
<path d="M480.8 249.2C479.734 250.933 482 252.133 484.4 251.2C485.6 250.8 487.734 251.2 489.334 252C490.934 252.8 492.534 253.2 492.934 252.8C493.6 252.133 490.8 250.8 484.4 248.8C482.8 248.267 481.2 248.533 480.8 249.2Z" fill="#84888e" fill-opacity="0.7"/>
<path d="M558.666 249.467C570.266 254.8 572.133 255.2 573.466 253.2C575.333 250.267 574.933 248.533 572.933 251.067C571.466 253.2 570.933 253.2 567.333 251.467C565.066 250.4 561.6 249.2 559.333 248.667C555.466 248 555.466 248 558.666 249.467Z" fill="#84888e" fill-opacity="0.7"/>
<path d="M411.467 251.333C411.867 252.4 413.334 253.6 414.8 254C416.134 254.533 417.334 255.467 417.334 256.267C417.334 257.733 421.2 261.467 429.067 267.6C431.334 269.467 433.334 272.133 433.334 273.467C433.334 274.933 434 276 434.667 276C435.467 276 436 277.2 436 278.533C436 282 438.267 283.333 439.067 280.4C439.6 278.267 439.867 278.4 440.667 280.933C441.734 284 446.667 286 448.134 283.867C448.667 282.933 450.667 283.467 453.867 285.2C460.267 288.8 461.067 288.8 466.134 283.867C470.4 279.733 474.667 278.667 478.8 280.533C480.134 281.067 481.867 280.667 483.2 279.333C485.2 277.2 485.734 277.333 490.134 281.2C495.067 285.6 503.334 287.333 500 283.333C497.867 280.8 499.334 278.8 501.6 281.067C504 283.467 504.934 283.067 504.667 279.867C504.534 278.4 501.867 274.933 498.534 272.4C493.334 268.267 490.534 266.667 480.667 262.533C475.734 260.4 467.467 259.067 457.6 258.8C450.667 258.533 446.534 257.733 443.6 255.867C441.2 254.533 438 253.333 436.4 253.333C434.8 253.333 433.067 252.667 432.667 252C431.334 249.867 430.134 250.4 428.667 253.6C427.6 256 427.867 257.467 429.867 260.267C431.334 262.267 432 264.4 431.467 264.933C430.134 266.4 422.534 257.867 423.334 255.733C424.134 253.6 417.6 249.333 413.467 249.333C411.6 249.333 410.934 250 411.467 251.333Z" fill="#84888e" fill-opacity="0.7"/>
<path d="M485.333 254.667C488 256.4 489.733 256.4 488.666 254.667C488.266 253.867 486.8 253.333 485.6 253.333C483.6 253.333 483.6 253.6 485.333 254.667Z" fill="#84888e" fill-opacity="0.7"/>
<path d="M533.067 259.599C534.001 259.999 535.201 259.866 535.601 259.466C536.134 259.066 535.334 258.666 533.867 258.799C532.401 258.799 532.001 259.199 533.067 259.599Z" fill="#84888e" fill-opacity="0.7"/>
<path d="M538.667 261.333C539.734 261.999 541.334 262.666 542 262.666C542.8 262.666 542.4 261.999 541.334 261.333C540.267 260.666 538.8 259.999 538 259.999C537.334 259.999 537.6 260.666 538.667 261.333Z" fill="#84888e " fill-opacity="0.7"/>
</svg>
