<svg width="189" height="80" viewBox="0 0 189 80" fill="none" xmlns="http://www.w3.org/2000/svg">
<path d="M37.4047 0.110191C31.7623 0.904594 26.4663 4.18406 23.4313 8.74679C21.598 11.517 20.3555 15.0613 20.0907 18.2796L19.9481 19.9703L18.1149 20.1129C13.4299 20.4999 8.56166 22.8831 5.36367 26.3459C-4.37288 36.8361 -0.299011 53.8853 13.104 58.7739C14.8762 59.4257 17.7075 59.9961 19.1333 59.9961H19.9889L20.1314 61.7682C20.6407 68.653 24.8368 74.8046 31.1513 77.9211C34.5937 79.6117 37.9139 80.2432 41.8452 79.9173C44.3099 79.734 46.4283 79.1229 48.8726 77.9211C54.5964 75.1101 58.4462 69.977 59.6683 63.6014C59.8313 62.7052 59.9739 61.5645 59.9739 61.0349V60.0572L61.6645 59.935C69.8326 59.3035 76.9212 53.5186 79.2229 45.656C81.9524 36.225 77.5934 26.3459 68.8549 22.1091C66.3902 20.9073 64.3533 20.3166 61.909 20.1129L60.0757 19.9703L59.9128 18.2593C58.9962 8.15608 50.9503 0.456467 40.8674 0.0287094C39.6656 -0.0323944 38.1176 0.00833893 37.4047 0.110191ZM42.6192 2.9619C49.1578 4.0211 54.576 8.76716 56.4907 15.0817C57 16.7723 57.3462 20.0721 57.0407 20.174C56.9185 20.2147 56.0426 20.4388 55.0852 20.6832C51.6021 21.5591 48.4856 23.372 45.8172 26.0607C43.2099 28.668 41.2545 32.2734 40.5619 35.6751C40.1953 37.5287 39.8286 37.5287 39.462 35.6751C38.7694 32.2734 36.8139 28.668 34.2067 26.0607C31.4975 23.3109 28.2181 21.4369 24.6738 20.6017L22.8406 20.174L22.9628 18.3408C23.4313 10.9263 29.6236 4.24516 37.2417 2.98227C38.7287 2.73783 41.1322 2.71747 42.6192 2.9619ZM20.3148 23.5349C21.3129 27.5273 22.535 30.1346 24.6738 32.7419C27.1181 35.7565 31.2327 38.3434 35.1233 39.3008C37.1195 39.81 37.588 40.136 36.6102 40.36C34.7363 40.7674 32.903 41.3377 31.7623 41.847C26.0386 44.4543 21.7203 49.8521 20.4574 55.9629L20.2333 57.1444H19.113C15.2224 57.1444 10.9245 55.2093 7.82836 52.0724C3.67301 47.8356 1.96199 42.2747 3.12304 36.6528C3.87671 32.9863 5.48588 30.1346 8.29685 27.4662C10.9652 24.9608 14.5299 23.3109 18.0741 22.9239C20.0703 22.7202 20.1111 22.7202 20.3148 23.5349ZM63.8441 23.2701C67.0217 23.922 69.9956 25.633 72.4603 28.1995C79.1211 35.1658 78.8155 45.9005 71.7881 52.5409C68.8346 55.3111 64.5366 57.1444 60.9109 57.1444H59.7906L59.5665 55.9629C58.3036 49.8521 53.9853 44.4543 48.2615 41.847C47.1208 41.3377 45.2876 40.7674 43.4136 40.36C42.4359 40.136 42.9044 39.81 44.9006 39.3008C52.2335 37.4676 58.1406 31.2957 59.5665 23.9831L59.8313 22.6998L61.0738 22.822C61.746 22.8831 63.0089 23.0868 63.8441 23.2701ZM24.8571 23.5553C27.7496 24.4516 29.7865 25.6533 31.9253 27.7514C33.4123 29.1976 34.6955 30.9901 35.5103 32.6808C36.1825 34.1066 36.875 36.5102 36.6917 36.7139C36.4473 36.938 34.0844 36.1843 32.4142 35.3492C28.5032 33.3937 25.4886 30.0735 23.9405 25.9793C23.2887 24.2479 23.0239 23.1275 23.2887 23.1275C23.3905 23.1275 24.1035 23.3312 24.8571 23.5553ZM56.7759 23.7794C56.3481 26.0811 54.6167 29.4013 52.7631 31.4179C50.6244 33.7603 47.6912 35.6343 44.9209 36.4491C43.0266 36.9991 42.9655 36.9176 43.7599 34.6159C45.0024 30.9494 47.4264 27.7921 50.604 25.6737C52.0706 24.696 52.8854 24.309 54.9834 23.6164C56.8777 22.985 56.9389 22.985 56.7759 23.7794ZM40.4601 43.9043C41.0915 47.6115 43.9636 52.5816 46.8764 55.0259C49.3004 57.0832 52.2539 58.6313 54.9834 59.2831C57.4481 59.8942 57.2648 59.6905 57.0814 61.7071C56.6537 66.6976 53.8835 71.3825 49.7281 74.2342C48.2819 75.212 45.6339 76.3934 43.8821 76.8211C41.8044 77.3304 38.2194 77.3304 36.1418 76.8211C30.9679 75.5379 26.6089 71.9936 24.4294 67.2476C23.6146 65.4958 22.9424 62.8681 22.8813 61.1367C22.8202 59.772 22.7591 59.8331 24.7349 59.385C31.3142 57.9184 36.9158 52.5816 39.0749 45.7783C39.3601 44.8413 39.6045 43.8839 39.6045 43.6191C39.6045 42.4988 40.2564 42.7229 40.4601 43.9043ZM36.2436 45.4524C34.8381 49.791 31.355 53.6612 27.1385 55.5963C25.6923 56.2685 23.3091 57.0018 23.1461 56.8388C22.9628 56.6759 23.9813 53.7427 24.7349 52.2557C25.6923 50.4021 26.2015 49.6892 27.8514 47.9985C29.9495 45.8597 32.5364 44.3117 35.3677 43.5173C36.9565 43.0691 36.9973 43.1302 36.2436 45.4524ZM47.2634 44.495C50.7058 46.1042 53.5983 48.9151 55.2889 52.2557C56.0426 53.7427 57.0611 56.6759 56.8777 56.8388C56.7148 57.0018 54.3316 56.2685 52.8854 55.5963C48.73 53.6816 45.3487 49.9743 43.8617 45.6764C43.5358 44.7598 43.271 43.8024 43.271 43.558V43.1099L44.6154 43.4969C45.3691 43.721 46.5505 44.1691 47.2634 44.495Z" fill="black"/>
<path d="M95.0911 15.3519C95.0911 15.4742 95.3559 15.6371 95.6818 15.6982C96.0484 15.7797 96.3132 15.9834 96.3947 16.2889C96.5984 17.063 96.5373 26.8403 96.3132 27.2476C96.2114 27.4513 95.8855 27.6754 95.6003 27.7365C95.3151 27.818 95.0911 27.9606 95.0911 28.0624C95.0911 28.1846 96.0281 28.2661 97.4335 28.2661C98.7168 28.2661 99.776 28.205 99.776 28.1032C99.776 28.0217 99.4705 27.818 99.1038 27.655L98.452 27.3495L98.3909 21.809C98.3502 16.9815 98.3909 16.2482 98.6761 15.963C98.839 15.7797 99.1649 15.6371 99.389 15.6371C99.5927 15.6371 99.776 15.5149 99.776 15.3723C99.776 15.189 99.1649 15.1279 97.4335 15.1279C95.8447 15.1279 95.0911 15.2094 95.0911 15.3519Z" fill="black"/>
<path d="M101.405 15.3519C101.405 15.4742 101.67 15.6371 101.996 15.6982C102.363 15.7797 102.627 15.9834 102.709 16.2889C102.913 17.063 102.851 26.8403 102.627 27.2476C102.526 27.4513 102.2 27.6754 101.915 27.7365C101.629 27.818 101.405 27.9606 101.405 28.0624C101.405 28.1846 102.342 28.2661 103.748 28.2661C105.031 28.2661 106.09 28.205 106.09 28.1032C106.09 28.0217 105.785 27.818 105.418 27.655L104.766 27.3495L104.705 24.5385C104.664 22.6238 104.725 21.7479 104.868 21.7479C105.459 21.7479 105.988 22.359 107.618 24.8237C108.962 26.8606 109.309 27.5532 109.105 27.6754C108.962 27.7772 108.779 27.8587 108.697 27.8587C108.596 27.8587 108.535 27.9402 108.535 28.0624C108.535 28.1846 109.349 28.2661 110.571 28.2661C112.079 28.2661 112.608 28.205 112.608 28.0013C112.608 27.8791 112.364 27.6347 112.058 27.4921C111.692 27.3495 110.653 26.0866 109.288 24.1719C108.066 22.4812 107.048 20.9943 106.986 20.8517C106.946 20.7295 107.72 19.6091 108.718 18.3462C110.083 16.6556 110.734 16.0241 111.264 15.8204C112.527 15.3723 112.14 15.1279 110.123 15.1483C108.881 15.1483 108.229 15.2297 108.168 15.3927C108.127 15.5353 108.27 15.6371 108.494 15.6371C109.085 15.6371 109.39 16.1056 109.166 16.676C108.962 17.2056 106.803 19.9962 106.172 20.5665C105.968 20.7498 105.54 20.9739 105.235 21.035L104.664 21.1776V18.7333C104.664 16.126 104.827 15.6371 105.703 15.6371C105.907 15.6371 106.09 15.5149 106.09 15.3723C106.09 15.189 105.479 15.1279 103.748 15.1279C102.159 15.1279 101.405 15.2094 101.405 15.3519Z" fill="black"/>
<path d="M122.018 34.9557C120.653 35.4242 119.309 36.7075 118.698 38.113C118.005 39.6611 117.904 43.0016 118.494 44.5497C119.411 47.0144 121.163 48.2162 123.79 48.2162C127.498 48.2162 129.738 45.6904 129.779 41.4943C129.799 38.9889 129.351 37.6649 128.027 36.3001C126.398 34.6298 124.3 34.1613 122.018 34.9557ZM126.174 36.2594C127.355 37.563 127.783 39.0296 127.762 41.5961C127.742 44.6923 126.887 46.6274 125.155 47.544C124.32 47.9718 122.976 47.7884 122.1 47.1162C120.083 45.5885 119.37 40.7406 120.735 37.5834C121.876 34.915 124.401 34.3039 126.174 36.2594Z" fill="black"/>
<path d="M152.776 34.9557C151.412 35.4242 150.067 36.7075 149.456 38.113C148.764 39.6611 148.662 43.0016 149.252 44.5497C150.169 47.0144 151.921 48.2162 154.548 48.2162C155.852 48.2162 156.28 48.1143 157.298 47.6051C158.52 46.994 158.826 47.0144 158.846 47.7477C158.846 47.8903 158.989 48.0125 159.172 48.0125C159.478 48.0125 159.498 47.8292 159.376 46.77C159.315 46.0774 159.254 45.0589 159.254 44.509C159.254 43.1442 158.846 43.3072 158.541 44.8145C158.398 45.5071 158.113 46.1793 157.808 46.5052C157.176 47.1977 155.872 47.7884 155.017 47.8088C154.263 47.8088 153.041 47.3403 152.471 46.8311C151.778 46.22 151.106 44.6108 150.882 43.022C150.475 40.2721 151.31 36.8705 152.674 35.7909C154.63 34.2632 157.767 35.3835 158.439 37.8278C158.582 38.3371 158.724 38.8667 158.765 38.9889C158.806 39.1315 158.928 39.2537 159.05 39.2537C159.233 39.2537 159.315 38.3167 159.356 35.6483C159.356 35.2205 159.254 34.8743 159.111 34.8132C158.948 34.7724 158.846 34.915 158.846 35.1594C158.846 35.8316 158.459 35.8724 157.278 35.2613C155.811 34.528 154.263 34.4261 152.776 34.9557Z" fill="black"/>
<path d="M95.0908 35.098C95.0908 35.2203 95.3556 35.3832 95.6815 35.4443C96.0482 35.5258 96.313 35.7295 96.3945 36.035C96.5982 36.8091 96.537 46.5864 96.313 46.9937C96.2111 47.1974 95.8852 47.4215 95.6001 47.4826C95.3149 47.5641 95.0908 47.7067 95.0908 47.8085C95.0908 47.9307 96.1093 48.0122 97.637 48.0122C100.102 48.0122 100.896 47.7881 99.5313 47.503C98.411 47.2585 98.3499 47.1363 98.3499 44.8346V42.7162H99.8369C102.75 42.7162 104.522 41.1681 104.522 38.6627C104.522 36.8498 103.666 35.6276 102.037 35.1795C100.957 34.874 95.0908 34.8129 95.0908 35.098ZM101.12 35.6888C102.118 36.0961 102.709 37.4405 102.587 39.0293C102.424 41.1885 101.609 42.0644 99.6128 42.2477L98.3499 42.3699V39.2738C98.3499 37.522 98.4518 35.9943 98.5536 35.7702C98.8184 35.2814 100.061 35.2406 101.12 35.6888Z" fill="black"/>
<path d="M105.884 35.0983C105.884 35.2205 106.149 35.3835 106.475 35.4446C106.841 35.5261 107.106 35.7298 107.187 36.0353C107.391 36.8094 107.33 46.5866 107.106 46.994C107.004 47.1977 106.678 47.4218 106.393 47.4829C106.108 47.5644 105.884 47.707 105.884 47.8088C105.884 47.931 106.821 48.0125 108.226 48.0125C109.51 48.0125 110.569 47.9514 110.569 47.8495C110.569 47.7681 110.263 47.5644 109.897 47.4014L109.245 47.0959L109.184 44.4886L109.123 41.9017H110.324C111.974 41.9017 112.259 42.248 112.952 45.0589C113.604 47.7477 113.97 48.2162 115.356 48.2162C116.089 48.2162 116.394 48.094 116.802 47.707C117.372 47.1366 117.27 46.5663 116.7 47.0755C116.272 47.4625 115.783 47.4829 115.498 47.1366C115.376 47.0144 115.111 46.1385 114.867 45.2219C114.317 42.9813 113.95 42.3498 113.054 41.9628L112.3 41.6369L112.932 41.4739C113.828 41.2295 114.989 40.0073 115.254 39.05C115.62 37.6649 115.091 36.3001 113.889 35.5668C113.237 35.1798 112.769 35.0983 110.976 35.0372C109.795 34.9965 108.165 34.9557 107.371 34.915C106.352 34.8743 105.884 34.9354 105.884 35.0983ZM112.158 35.7909C113.889 36.8501 113.767 40.1092 111.974 41.0258C111.709 41.1684 110.956 41.2906 110.324 41.2906H109.143V38.7241C109.143 37.3186 109.245 35.9946 109.347 35.7705C109.652 35.2205 111.241 35.2409 112.158 35.7909Z" fill="black"/>
<path d="M131.346 35.1184C131.346 35.2609 131.549 35.3832 131.814 35.3832C132.751 35.3832 132.771 35.485 132.751 42.2884C132.751 49.4176 132.69 49.8454 131.57 50.5991C130.592 51.2509 129.166 51.2101 129.736 50.538C130.042 50.1713 129.879 49.2139 129.492 48.9695C129.309 48.8677 128.922 48.8269 128.636 48.9084C127.516 49.1732 127.822 50.8231 129.064 51.2916C129.37 51.4138 130.123 51.4749 130.775 51.4342C132.303 51.3324 133.464 50.5583 134.055 49.2751C134.482 48.3788 134.503 47.9103 134.605 42.1865C134.706 35.6072 134.747 35.3832 135.766 35.3832C136.051 35.3832 136.234 35.2813 136.193 35.1591C136.071 34.8128 131.346 34.7925 131.346 35.1184Z" fill="black"/>
<path d="M137.457 35.098C137.457 35.2203 137.722 35.3832 138.048 35.4443C138.414 35.5258 138.679 35.7295 138.761 36.035C138.964 36.8091 138.903 46.5864 138.679 46.9937C138.577 47.1974 138.251 47.4215 137.966 47.4826C137.681 47.5641 137.457 47.7067 137.457 47.8085C137.457 47.9307 139.25 48.0122 142.244 48.0122H147.051L146.99 46.1382C146.929 44.1624 146.582 43.5106 146.338 44.8957C146.114 46.1586 145.788 46.79 145.177 47.0956C144.464 47.4826 141.327 47.5233 140.961 47.1567C140.798 46.9937 140.716 46.0567 140.716 44.305V41.6977H141.633C142.733 41.6977 143.283 42.1866 143.466 43.368C143.547 43.7958 143.71 44.1217 143.833 44.0809C144.036 44.0198 144.057 38.8664 143.853 38.6423C143.69 38.4997 143.364 39.1108 143.364 39.5793C143.364 39.8237 143.181 40.2515 142.936 40.557C142.59 40.9848 142.346 41.0866 141.612 41.0866H140.716V38.5608C140.716 35.424 140.736 35.3832 142.875 35.3832C145.055 35.3832 145.686 35.7906 145.931 37.359C146.012 37.909 146.175 38.2349 146.338 38.2349C146.562 38.2349 146.623 37.8479 146.623 36.5443V34.874H142.04C138.781 34.874 137.457 34.9351 137.457 35.098Z" fill="black"/>
<path d="M161.208 34.9758C161.188 35.0369 161.208 35.9332 161.249 36.972C161.289 38.3164 161.391 38.846 161.554 38.7849C161.697 38.7442 161.86 38.2553 161.941 37.7257C162.186 36.035 163.143 35.261 164.834 35.424L165.465 35.4851L165.506 40.8829C165.567 46.8512 165.526 47.1567 164.386 47.4826C163.102 47.8493 163.774 48.0122 166.484 48.0122C169.132 48.0122 169.987 47.8085 168.582 47.503C167.359 47.2382 167.4 47.4215 167.4 41.1681V35.3832H168.276C168.745 35.3832 169.356 35.5054 169.641 35.648C170.232 35.9536 170.802 36.9924 170.965 38.0923C171.189 39.4775 171.494 38.7849 171.535 36.8498L171.576 34.9555L166.422 34.9147C163.571 34.8943 161.228 34.9147 161.208 34.9758Z" fill="black"/>
<path d="M95.8466 69.1963C95.2356 69.7259 95.1745 69.9296 95.1134 71.0906C95.0522 72.1294 95.1134 72.5165 95.4393 73.0461C95.9689 73.9016 97.0281 74.2071 98.128 73.8405C98.6984 73.6368 98.9224 73.6368 99.0039 73.7997C99.0446 73.922 99.0854 73.5553 99.0854 73.0053C99.0854 72.1294 99.065 72.0683 98.9224 72.5572C98.6984 73.3109 98.1688 73.6979 97.3744 73.7183C96.417 73.7183 96.0096 73.1072 95.9078 71.5998C95.8466 70.6832 95.9281 70.1333 96.1522 69.6851C96.7633 68.5037 98.2706 68.6259 98.8206 69.9092L99.1057 70.561L99.1261 69.7462C99.1261 69.1148 99.0446 68.9111 98.7798 68.8704C98.5761 68.85 97.9854 68.7685 97.4762 68.7074C96.6207 68.6056 96.4577 68.6463 95.8466 69.1963Z" fill="black"/>
<path d="M100.818 68.9108C101.104 69.1348 101.165 69.5218 101.165 71.3347C101.165 73.1679 101.104 73.5346 100.818 73.6976C100.533 73.8605 100.717 73.9012 101.572 73.9012C102.428 73.9012 102.611 73.8605 102.346 73.6976C102.081 73.555 101.979 73.2291 101.979 72.4958V71.4773H103.1H104.22V72.4958C104.22 73.2291 104.118 73.555 103.874 73.6976C103.589 73.8605 103.772 73.9012 104.628 73.9012C105.483 73.9012 105.666 73.8605 105.402 73.6976C105.096 73.5142 105.035 73.1679 105.035 71.2736C105.035 69.3793 105.096 69.033 105.402 68.8496C105.666 68.6867 105.544 68.646 104.79 68.6256C104.24 68.6256 103.813 68.7071 103.813 68.8293C103.813 68.9311 103.915 69.033 104.037 69.033C104.159 69.033 104.22 69.4607 104.179 70.0922L104.118 71.1718L103.059 71.2329L101.979 71.294V70.1737C101.979 69.3181 102.061 69.0126 102.346 68.8496C102.611 68.6867 102.428 68.646 101.572 68.646C100.594 68.646 100.493 68.6663 100.818 68.9108Z" fill="black"/>
<path d="M108.597 69.2779C108.454 69.6446 108.047 70.7038 107.68 71.6204C107.334 72.5574 106.947 73.3518 106.845 73.4129C106.438 73.6777 106.703 73.9221 107.416 73.9221C108.108 73.9221 108.129 73.9017 107.782 73.6369C107.456 73.4129 107.436 73.2499 107.599 72.6796C107.762 72.0685 107.884 71.987 108.536 71.9259C109.106 71.8852 109.351 71.9667 109.595 72.3333C109.982 72.8833 110.023 73.6369 109.677 73.7795C109.534 73.8406 109.86 73.9017 110.41 73.9017C111.347 73.9221 111.388 73.9017 111.102 73.5555C110.939 73.3721 110.41 72.1704 109.921 70.9075C109.432 69.6649 109.004 68.6261 108.964 68.6261C108.923 68.6261 108.76 68.9316 108.597 69.2779ZM109.066 70.7241C109.391 71.6611 109.391 71.6815 108.699 71.6815C108.027 71.6815 107.986 71.6204 108.312 70.6834C108.597 69.8686 108.76 69.889 109.066 70.7241Z" fill="black"/>
<path d="M112.222 68.9113C112.508 69.1353 112.569 69.5223 112.569 71.3352C112.569 73.1685 112.508 73.5351 112.222 73.6981C111.917 73.861 112.019 73.9017 112.65 73.9221C113.404 73.9221 113.424 73.9017 113.119 73.5555C112.854 73.2703 112.772 72.7611 112.772 71.4167C112.772 70.439 112.834 69.6446 112.935 69.6446C113.017 69.6649 113.669 70.6223 114.402 71.7833C115.135 72.9444 115.787 73.9017 115.889 73.9221C115.97 73.9221 116.032 72.9037 116.032 71.6408C116.032 69.8075 116.093 69.2983 116.378 68.9927C116.683 68.6465 116.663 68.6261 115.909 68.6261C115.196 68.6465 115.156 68.6668 115.482 68.9113C115.787 69.1557 115.828 69.4409 115.787 70.7852L115.726 72.3944L114.524 70.5001C113.363 68.7076 113.261 68.6261 112.589 68.6261C111.937 68.6465 111.897 68.6668 112.222 68.9113Z" fill="black"/>
<path d="M119.128 68.9311C117.743 69.9292 117.702 72.9846 119.108 73.7179C119.637 74.0235 120.961 74.0235 121.491 73.7383C121.796 73.5754 121.939 73.5754 122 73.779C122.061 73.9013 122.122 73.6161 122.122 73.0865C122.143 72.5773 122.245 72.068 122.387 71.9254C122.57 71.7421 122.408 71.681 121.634 71.7014C121.063 71.7217 120.778 71.7625 120.961 71.8236C121.409 71.9458 121.654 73.0254 121.328 73.4124C120.9 73.9216 119.78 73.7994 119.311 73.1883C118.782 72.5161 118.721 70.5403 119.189 69.6441C119.78 68.5034 121.308 68.646 121.817 69.8885L122.102 70.52L122.163 69.7052C122.245 68.9923 122.204 68.87 121.837 68.8497C121.613 68.8497 121.022 68.7886 120.513 68.7275C119.841 68.6256 119.474 68.6867 119.128 68.9311Z" fill="black"/>
<path d="M124.037 68.9113C124.322 69.1353 124.383 69.5223 124.383 71.3352C124.383 73.1685 124.322 73.5351 124.037 73.6981C123.772 73.861 124.2 73.9017 125.666 73.9221H127.642V73.1481V72.3944L127.235 73.0666C126.868 73.6573 126.726 73.7388 126.053 73.6777L125.3 73.6166L125.239 72.537C125.178 71.5796 125.218 71.4778 125.605 71.4778C125.85 71.4778 126.094 71.6611 126.216 71.9259C126.359 72.2926 126.4 72.15 126.4 71.2741C126.379 70.663 126.339 70.2964 126.278 70.4593C126.155 70.8056 125.626 71.2741 125.361 71.2741C125.279 71.2741 125.198 70.7852 125.198 70.1742C125.198 69.2575 125.259 69.0335 125.585 68.9316C126.257 68.7279 126.99 69.0335 127.214 69.6038C127.398 70.1334 127.398 70.1334 127.418 69.3798L127.439 68.6261H125.565C123.935 68.6465 123.731 68.6872 124.037 68.9113Z" fill="black"/>
<path d="M131.333 69.4811L131.353 70.357L131.618 69.7663C131.863 69.1756 132.474 68.7885 132.8 68.9719C132.881 69.0126 132.942 70.0514 132.942 71.2736C132.942 73.1679 132.881 73.5142 132.596 73.6976C132.311 73.8605 132.494 73.9012 133.35 73.9012C134.205 73.9012 134.389 73.8605 134.124 73.6976C133.798 73.5142 133.757 73.1679 133.757 71.131C133.757 69.0737 133.798 68.8089 134.083 68.9108C134.266 68.9719 134.49 69.033 134.592 69.033C134.714 69.033 134.918 69.3385 135.081 69.6848L135.366 70.357L135.387 69.4811V68.6256H133.35H131.313L131.333 69.4811Z" fill="black"/>
<path d="M137.585 69.2165C137.015 69.7257 136.934 69.9294 136.872 71.0905C136.771 72.72 137.239 73.5959 138.319 73.9014C140.315 74.431 141.822 72.7811 141.394 70.5201C141.069 68.7073 138.971 67.974 137.585 69.2165ZM140.05 69.3591C140.845 70.3775 140.783 72.5571 139.928 73.4126C139.765 73.5755 139.358 73.7181 139.032 73.7181C138.584 73.7181 138.339 73.5552 138.034 73.0459C137.321 71.9052 137.606 69.3183 138.482 68.9721C139.093 68.7276 139.663 68.8702 140.05 69.3591Z" fill="black"/>
<path d="M145.424 68.9113C145.709 69.1353 145.771 69.5223 145.771 71.3352C145.771 73.1685 145.709 73.5351 145.424 73.6981C145.159 73.861 145.465 73.9017 146.646 73.9221C148.072 73.9221 148.296 73.861 148.724 73.4129C149.009 73.1481 149.233 72.7611 149.233 72.5574C149.233 72.0278 148.663 71.2741 148.276 71.2741C147.991 71.2741 148.011 71.1926 148.378 70.8056C149.518 69.5834 148.541 68.6261 146.219 68.6261C145.2 68.6465 145.098 68.6668 145.424 68.9113ZM147.848 69.3186C148.093 69.6649 148.032 70.5612 147.767 70.826C147.624 70.9686 147.319 71.0704 147.054 71.0704C146.626 71.0704 146.585 70.9686 146.585 70.0927C146.585 69.5427 146.646 69.0335 146.728 68.9724C146.911 68.789 147.665 69.0131 147.848 69.3186ZM148.011 71.6815C148.235 71.9056 148.419 72.2722 148.419 72.4963C148.419 73.0666 147.665 73.7592 147.135 73.6777C146.748 73.6166 146.687 73.474 146.626 72.4352C146.565 71.3148 146.585 71.2741 147.095 71.2741C147.38 71.2741 147.787 71.4574 148.011 71.6815Z" fill="black"/>
<path d="M150.722 68.9113C151.007 69.1353 151.068 69.5223 151.068 71.3352C151.068 73.1685 151.007 73.5351 150.722 73.6981C150.457 73.861 150.885 73.9017 152.351 73.9221H154.327V73.1481V72.3944L153.92 73.0666C153.553 73.6573 153.41 73.7388 152.738 73.6777L151.985 73.6166L151.923 72.537C151.862 71.5796 151.903 71.4778 152.29 71.4778C152.535 71.4778 152.779 71.6611 152.901 71.9259C153.044 72.2926 153.085 72.15 153.085 71.2741C153.064 70.663 153.023 70.2964 152.962 70.4593C152.84 70.8056 152.31 71.2741 152.046 71.2741C151.964 71.2741 151.883 70.7852 151.883 70.1742C151.883 69.2575 151.944 69.0335 152.27 68.9316C152.942 68.7279 153.675 69.0335 153.899 69.6038C154.083 70.1334 154.083 70.1334 154.103 69.3798L154.123 68.6261H152.249C150.62 68.6465 150.416 68.6872 150.722 68.9113Z" fill="black"/>
<path d="M158.256 68.9113C158.541 69.1353 158.603 69.5223 158.603 71.3352C158.603 73.1685 158.541 73.5351 158.256 73.6981C157.991 73.861 158.297 73.9017 159.478 73.9221C160.904 73.9221 161.128 73.861 161.556 73.4129C161.841 73.1481 162.065 72.7611 162.065 72.5574C162.065 72.0278 161.495 71.2741 161.108 71.2741C160.823 71.2741 160.843 71.1926 161.21 70.8056C162.351 69.5834 161.373 68.6261 159.051 68.6261C158.032 68.6465 157.93 68.6668 158.256 68.9113ZM160.68 69.3186C160.925 69.6649 160.864 70.5612 160.599 70.826C160.456 70.9686 160.151 71.0704 159.886 71.0704C159.458 71.0704 159.417 70.9686 159.417 70.0927C159.417 69.5427 159.478 69.0335 159.56 68.9724C159.743 68.789 160.497 69.0131 160.68 69.3186ZM160.843 71.6815C161.067 71.9056 161.251 72.2722 161.251 72.4963C161.251 73.0666 160.497 73.7592 159.967 73.6777C159.58 73.6166 159.519 73.474 159.458 72.4352C159.397 71.3148 159.417 71.2741 159.927 71.2741C160.212 71.2741 160.619 71.4574 160.843 71.6815Z" fill="black"/>
<path d="M163.554 68.9113C163.839 69.1353 163.9 69.5223 163.9 71.3352C163.9 73.1685 163.839 73.5351 163.554 73.6981C163.289 73.861 163.717 73.9017 165.183 73.9221H167.159V73.1481V72.3944L166.752 73.0666C166.385 73.6573 166.242 73.7388 165.57 73.6777L164.817 73.6166L164.756 72.537C164.694 71.5796 164.735 71.4778 165.122 71.4778C165.367 71.4778 165.611 71.6611 165.733 71.9259C165.876 72.2926 165.917 72.15 165.917 71.2741C165.896 70.663 165.855 70.2964 165.794 70.4593C165.672 70.8056 165.143 71.2741 164.878 71.2741C164.796 71.2741 164.715 70.7852 164.715 70.1742C164.715 69.2575 164.776 69.0335 165.102 68.9316C165.774 68.7279 166.507 69.0335 166.731 69.6038C166.915 70.1334 166.915 70.1334 166.935 69.3798L166.955 68.6261H165.081C163.452 68.6465 163.248 68.6872 163.554 68.9113Z" fill="black"/>
<path d="M168.402 69.4811L168.422 70.357L168.687 69.7663C168.932 69.1756 169.543 68.7885 169.869 68.9719C169.95 69.0126 170.011 70.0514 170.011 71.2736C170.011 73.1679 169.95 73.5142 169.665 73.6976C169.38 73.8605 169.563 73.9012 170.419 73.9012C171.274 73.9012 171.457 73.8605 171.193 73.6976C170.867 73.5142 170.826 73.1679 170.826 71.131C170.826 69.0737 170.867 68.8089 171.152 68.9108C171.335 68.9719 171.559 69.033 171.661 69.033C171.783 69.033 171.987 69.3385 172.15 69.6848L172.435 70.357L172.455 69.4811V68.6256H170.419H168.382L168.402 69.4811Z" fill="black"/>
<path d="M173.699 69.4811L173.72 70.357L173.984 69.7663C174.229 69.1756 174.84 68.7885 175.166 68.9719C175.247 69.0126 175.309 70.0514 175.309 71.2736C175.309 73.1679 175.247 73.5142 174.962 73.6976C174.677 73.8605 174.86 73.9012 175.716 73.9012C176.571 73.9012 176.755 73.8605 176.49 73.6976C176.164 73.5142 176.123 73.1679 176.123 71.131C176.123 69.0737 176.164 68.8089 176.449 68.9108C176.633 68.9719 176.857 69.033 176.958 69.033C177.081 69.033 177.284 69.3385 177.447 69.6848L177.732 70.357L177.753 69.4811V68.6256H175.716H173.679L173.699 69.4811Z" fill="black"/>
<path d="M179.036 68.9113C179.321 69.1353 179.382 69.5223 179.382 71.3352C179.382 73.1685 179.321 73.5351 179.036 73.6981C178.771 73.861 179.199 73.9017 180.666 73.9221H182.642V73.1481V72.3944L182.234 73.0666C181.867 73.6573 181.725 73.7388 181.053 73.6777L180.299 73.6166L180.238 72.537C180.177 71.5796 180.218 71.4778 180.605 71.4778C180.849 71.4778 181.093 71.6611 181.216 71.9259C181.358 72.2926 181.399 72.15 181.399 71.2741C181.379 70.663 181.338 70.2964 181.277 70.4593C181.155 70.8056 180.625 71.2741 180.36 71.2741C180.279 71.2741 180.197 70.7852 180.197 70.1742C180.197 69.2575 180.258 69.0335 180.584 68.9316C181.256 68.7279 181.99 69.0335 182.214 69.6038C182.397 70.1334 182.397 70.1334 182.417 69.3798L182.438 68.6261H180.564C178.934 68.6465 178.731 68.6872 179.036 68.9113Z" fill="black"/>
<path d="M184.332 68.8906C184.617 69.1351 184.678 69.5221 184.678 71.335C184.678 73.1682 184.617 73.5348 184.332 73.6978C184.047 73.8608 184.23 73.9015 185.086 73.9015C185.941 73.9015 186.125 73.8608 185.86 73.6978C185.595 73.5552 185.493 73.2293 185.493 72.496C185.493 71.6609 185.554 71.4775 185.86 71.4775C186.451 71.4775 186.675 71.7423 186.939 72.7608C187.204 73.8404 187.591 74.1663 188.304 73.9015C188.834 73.6978 188.915 73.4737 188.406 73.5552C188.141 73.596 187.978 73.3923 187.775 72.8016C187.632 72.3534 187.388 71.8646 187.225 71.7016C186.98 71.4572 187.021 71.3553 187.449 71.0294C188.06 70.5406 188.1 69.6443 187.51 69.1147C187.184 68.8295 186.715 68.7277 185.534 68.6666C184.169 68.6258 184.006 68.6462 184.332 68.8906ZM186.878 69.2777C187.53 69.8276 186.878 71.2739 185.962 71.2739C185.534 71.2739 185.493 71.1924 185.493 70.1943C185.493 69.5832 185.554 69.0332 185.636 68.9721C185.799 68.8092 186.491 68.9925 186.878 69.2777Z" fill="black"/>
</svg>
