<svg width="48" height="48" viewBox="0 0 48 48" fill="none" xmlns="http://www.w3.org/2000/svg">
<g clip-path="url(#clip0_686_304)">
<circle cx="24" cy="24" r="23.5" stroke="#970101"/>
<path d="M23.8142 35.256C22.5343 35.256 21.2756 35.064 20.0383 34.68C18.8009 34.296 17.7236 33.72 16.8063 32.952C16.5929 32.8027 16.4543 32.632 16.3903 32.44C16.3476 32.248 16.3476 32.0667 16.3903 31.896C16.4329 31.7253 16.5183 31.576 16.6463 31.448C16.7743 31.32 16.9343 31.256 17.1263 31.256C17.3183 31.2347 17.5316 31.3093 17.7663 31.48C18.7263 32.1627 19.6969 32.664 20.6783 32.984C21.6809 33.304 22.7263 33.464 23.8142 33.464C24.9663 33.464 25.9369 33.2933 26.7263 32.952C27.5156 32.5893 28.1129 32.0667 28.5183 31.384C28.9449 30.7013 29.1583 29.8587 29.1583 28.856C29.1583 27.4053 28.6783 26.3067 27.7183 25.56C26.7796 24.792 25.4143 24.408 23.6223 24.408H21.2223C20.9236 24.408 20.6889 24.3333 20.5183 24.184C20.3476 24.0133 20.2623 23.8 20.2623 23.544C20.2623 23.2667 20.3476 23.0533 20.5183 22.904C20.6889 22.7547 20.9236 22.68 21.2223 22.68H23.4623C24.5076 22.68 25.4036 22.488 26.1503 22.104C26.8969 21.72 27.4729 21.1867 27.8783 20.504C28.3049 19.8 28.5183 18.9573 28.5183 17.976C28.5183 16.696 28.1023 15.7147 27.2703 15.032C26.4596 14.328 25.2756 13.976 23.7183 13.976C22.6729 13.976 21.6916 14.1467 20.7743 14.488C19.8569 14.808 18.9823 15.3307 18.1503 16.056C17.9583 16.2267 17.7663 16.3227 17.5743 16.344C17.3823 16.344 17.2116 16.2907 17.0623 16.184C16.9343 16.0773 16.8383 15.9387 16.7743 15.768C16.7103 15.576 16.7103 15.384 16.7743 15.192C16.8383 14.9787 16.9769 14.7867 17.1903 14.616C18.0223 13.8267 19.0143 13.2293 20.1663 12.824C21.3396 12.3973 22.5449 12.184 23.7823 12.184C25.1903 12.184 26.3956 12.408 27.3983 12.856C28.4009 13.304 29.1689 13.9547 29.7023 14.808C30.2569 15.6613 30.5343 16.6853 30.5343 17.88C30.5343 18.8187 30.3529 19.672 29.9903 20.44C29.6489 21.208 29.1583 21.8587 28.5183 22.392C27.8783 22.9253 27.1103 23.3093 26.2143 23.544V23.192C27.7716 23.4693 28.9769 24.12 29.8303 25.144C30.7049 26.1467 31.1423 27.416 31.1423 28.952C31.1423 30.232 30.8436 31.352 30.2463 32.312C29.6703 33.2507 28.8383 33.976 27.7503 34.488C26.6623 35 25.3503 35.256 23.8142 35.256Z" fill="#970101"/>
</g>
<defs>
<clipPath id="clip0_686_304">
<rect width="48" height="48" fill="white"/>
</clipPath>
</defs>
</svg>
