<svg width="48" height="123" viewBox="0 0 48 123" fill="none" xmlns="http://www.w3.org/2000/svg">
<g clip-path="url(#clip0_686_294)">
<circle cx="24" cy="24" r="23.5" stroke="#970101"/>
<path d="M18.4703 35C18.0863 35 17.7983 34.9147 17.6063 34.744C17.4356 34.552 17.3503 34.3067 17.3503 34.008C17.3503 33.8373 17.3929 33.6667 17.4783 33.496C17.5636 33.3253 17.6809 33.1653 17.8303 33.016L25.3183 24.92C26.4703 23.6827 27.3023 22.5413 27.8143 21.496C28.3263 20.4293 28.5823 19.3413 28.5823 18.232C28.5823 16.8453 28.1663 15.7893 27.3343 15.064C26.5023 14.3387 25.2863 13.976 23.6863 13.976C22.6196 13.976 21.6276 14.1573 20.7103 14.52C19.8143 14.8613 18.9503 15.3733 18.1183 16.056C17.9049 16.2267 17.7023 16.312 17.5103 16.312C17.3396 16.312 17.1903 16.2587 17.0623 16.152C16.9343 16.024 16.8383 15.8747 16.7743 15.704C16.7316 15.512 16.7316 15.32 16.7743 15.128C16.8383 14.936 16.9556 14.7653 17.1263 14.616C17.9583 13.8907 18.9609 13.304 20.1343 12.856C21.3076 12.408 22.5236 12.184 23.7823 12.184C25.2329 12.184 26.4596 12.4187 27.4623 12.888C28.4863 13.336 29.2649 14.008 29.7983 14.904C30.3316 15.8 30.5983 16.8773 30.5983 18.136C30.5983 19.032 30.4489 19.9173 30.1503 20.792C29.8516 21.6667 29.4036 22.552 28.8063 23.448C28.2303 24.344 27.4836 25.2827 26.5663 26.264L19.3663 33.88V33.272H30.7903C31.0889 33.272 31.3129 33.3467 31.4623 33.496C31.6329 33.624 31.7183 33.8267 31.7183 34.104C31.7183 34.4027 31.6329 34.6267 31.4623 34.776C31.3129 34.9253 31.0889 35 30.7903 35H18.4703Z" fill="#970101"/>
</g>
<path d="M37.6777 108L23.9997 121.678L10.3227 108" stroke="#970101"/>
<path d="M23.8848 121.883L23.8848 48" stroke="#970101" stroke-linecap="square"/>
<defs>
<clipPath id="clip0_686_294">
<rect width="48" height="48" fill="white"/>
</clipPath>
</defs>
</svg>
