<svg width="48" height="123" viewBox="0 0 48 123" fill="none" xmlns="http://www.w3.org/2000/svg">
<g clip-path="url(#clip0_686_284)">
<circle cx="24" cy="24" r="23.5" stroke="#970101"/>
<path d="M19.3343 35C19.0569 35 18.8329 34.9253 18.6623 34.776C18.4916 34.6053 18.4062 34.3813 18.4062 34.104C18.4062 33.8267 18.4916 33.624 18.6623 33.496C18.8329 33.3467 19.0569 33.272 19.3343 33.272H23.7823V14.008H24.9023L20.2623 17.176C20.0489 17.3253 19.8463 17.4 19.6543 17.4C19.4623 17.3787 19.3023 17.304 19.1743 17.176C19.0463 17.048 18.9503 16.8987 18.8863 16.728C18.8436 16.5573 18.8543 16.376 18.9183 16.184C18.9823 15.992 19.1209 15.832 19.3343 15.704L23.7503 12.632C23.9636 12.504 24.1556 12.408 24.3263 12.344C24.4969 12.28 24.6889 12.248 24.9023 12.248C25.1369 12.248 25.3289 12.3227 25.4783 12.472C25.6489 12.6 25.7343 12.824 25.7343 13.144V33.272H29.8623C30.1609 33.272 30.3849 33.3467 30.5343 33.496C30.7049 33.624 30.7903 33.8267 30.7903 34.104C30.7903 34.4027 30.7049 34.6267 30.5343 34.776C30.3849 34.9253 30.1609 35 29.8623 35H19.3343Z" fill="#970101"/>
</g>
<path d="M37.6777 108L23.9997 121.678L10.3227 108" stroke="#970101"/>
<path d="M23.8848 121.883L23.8848 48" stroke="#970101" stroke-linecap="square"/>
<defs>
<clipPath id="clip0_686_284">
<rect width="48" height="48" fill="white"/>
</clipPath>
</defs>
</svg>
