<svg width="1440" height="1200" xmlns="http://www.w3.org/2000/svg" fill="none">
 <g id="Layer_1">
  <title>Layer 1</title>
  <path d="m825.5556,554.44525c0,-5.55554 -0.33942,-8.35419 0,-11.11115c1.39935,-11.36725 7.03815,-25.26837 11.11115,-41.66669c6.35229,-25.57523 10.85181,-45.61575 25,-77.77783c11.51581,-26.17801 33.61371,-65.69641 58.33337,-97.22229c27.90186,-35.58426 75.83179,-72.6315 133.33337,-105.55562c32.34155,-18.51802 80.33081,-42.39604 133.3335,-58.33337c77.46399,-23.29262 133.47876,-32.39253 208.3335,-44.44448c64.02344,-10.30805 132.65698,-26.50654 225.00012,-38.88892c63.56116,-8.52297 147.45886,-23.22149 216.66675,-33.33335c80.88538,-11.81805 138.48108,-26.78239 183.3335,-36.11114c66.17004,-13.76256 125.00012,-8.33334 161.11121,-8.33334c44.44458,0 69.44458,0 94.44458,0l33.33325,0l22.22241,0l11.11108,0" id="svg_26" stroke-width="2" stroke="#000" fill="none"/>
  <path d="m689.4444,1285.00134c5.55554,0 8.33331,5.55554 19.44446,5.55554c11.11115,0 30.5556,0 44.44446,0c19.44446,0 35.85443,-9.4856 58.33337,-13.88892c19.27551,-3.77588 40.47528,-12.99854 52.77783,-19.44446c15.56158,-8.15356 27.11951,-12.16821 44.44446,-22.22229c16.11664,-9.35278 33.73773,-18.78833 61.11115,-36.11108c25.38947,-16.06714 40.3609,-27.14795 50.00006,-33.33337c14.96954,-9.60596 16.88495,-22.05029 27.77777,-36.11108c8.50586,-10.97974 18.23987,-26.40137 27.77783,-38.88892c13.59375,-17.79761 21.05469,-33.76917 27.77783,-50.00012c7.13086,-17.21539 16.0332,-36.44312 25,-52.77777c7.79419,-14.19849 16.09424,-33.57623 22.22217,-47.22223c7.63354,-16.9986 14.3623,-33.1283 25,-58.33337c5.81653,-13.78168 15.40051,-38.51929 19.44446,-58.33337c4.47839,-21.94287 6.84875,-43.99475 11.11121,-58.33337c4.03589,-13.57678 5.55554,-30.5556 8.33325,-47.22229c2.77783,-16.66669 0.40198,-25.14569 2.77783,-44.44446c1.39941,-11.36731 4.14648,-27.8454 2.77783,-41.66669c-1.39575,-14.09503 -4.19812,-30.63885 -5.55566,-41.66669c-1.39929,-11.36731 -3.51917,-25.12494 -5.55554,-41.66669c-1.39929,-11.36731 -3.94568,-22.46069 -5.55554,-27.77783c-2.90234,-9.58566 -6.51721,-15.84854 -11.11108,-22.22223c-3.63184,-5.03888 -5.55554,-11.11111 -8.33337,-19.44446l0,0" id="svg_32" stroke-width="2" stroke="#000" fill="none"/>
  <path d="m875.55566,1304.4458c0,-2.77783 0,-2.77783 0,-8.33337c0,-2.77783 4.05225,-4.70398 5.55554,-8.33337c2.12598,-5.13269 1.33484,-11.21875 0,-19.44446c-1.40704,-8.67065 -4.15619,-13.63281 -5.55554,-25c-1.01819,-8.271 -2.77783,-16.66663 -2.77783,-19.44446c0,-8.33337 0,-11.11108 0,-22.22217c0,-2.77783 -0.80164,-10.74536 -5.55554,-22.22229c-3.36151,-8.11548 -0.86316,-14.11182 -2.77777,-22.22229c-1.42706,-6.04517 -5.55554,-13.88879 -8.33331,-22.22217c-2.77783,-8.33337 -7.27844,-15.74707 -11.11115,-25c-5.42035,-13.08582 -8.2088,-20.96997 -11.11115,-30.55566c-2.41486,-7.97571 -7.44055,-22.57507 -11.11108,-30.55554c-6.76807,-14.71533 -12.28375,-22.75208 -16.66669,-33.33337c-6.1983,-14.96411 -13.46661,-25.22137 -19.44446,-36.11108c-7.79419,-14.19849 -10.0296,-22.66473 -13.88892,-30.5556c-4.40027,-8.99701 -12.55353,-20.995 -19.44446,-30.5556c-3.63177,-5.03888 -10.52728,-16.88452 -13.88885,-25c-4.75391,-11.47699 -11.18335,-19.96667 -19.44446,-33.33337c-4.6181,-7.47217 -17.4823,-24.2403 -27.77783,-36.11108c-9.10004,-10.49243 -27.09119,-22.66846 -36.11115,-44.44452c-2.12604,-5.13263 -8.55164,-16.49481 -19.44446,-30.55554c-8.50586,-10.97961 -19.21753,-19.75598 -30.55554,-27.77783c-16.35193,-11.56927 -25.73242,-21.84851 -41.66669,-33.33331c-15.11664,-10.89545 -35.45294,-20.50159 -52.77783,-30.5556c-10.74442,-6.23523 -28.9079,-14.41156 -47.22226,-25c-12.02399,-6.95166 -28.21356,-12.72137 -44.44449,-19.44446c-11.47699,-4.75397 -32.25809,-16.02386 -47.22226,-22.22223c-21.16254,-8.76581 -40.89536,-13.56506 -63.88892,-19.44446c-19.02963,-4.86584 -43.88199,-10.02594 -58.33337,-13.88892c-18.97563,-5.07233 -30.49789,-5.82178 -55.5556,-11.11115c-13.85855,-2.92535 -39.05,-8.79938 -55.55559,-11.11108c-20.02707,-2.80487 -75.22962,-10.26245 -97.22229,-16.66669c-16.8676,-4.91187 -41.84499,-3.57306 -52.77781,-5.55554c-23.35253,-4.23465 -36.11114,-11.11115 -52.77781,-11.11115c-11.11112,0 -22.22224,0 -30.55558,-2.77777c-8.33334,-2.77777 -19.44446,-5.55557 -25.00002,-5.55557c-5.55556,0 -8.33334,0 -16.66667,-2.77777l-2.77779,0l-5.55556,0" id="svg_37" stroke-width="2" stroke="#000" fill="none"/>
 </g>
</svg>