<svg width="57" height="26" viewBox="0 0 57 26" fill="none" xmlns="http://www.w3.org/2000/svg">
<path d="M19.7369 14.8683C18.7376 15.1845 17.7533 16.0507 17.3059 16.9994C16.7988 18.0444 16.7243 20.2993 17.1568 21.3442C17.8279 23.0079 19.1105 23.8191 21.0344 23.8191C23.7487 23.8191 25.3892 22.1142 25.419 19.2818C25.4339 17.5907 25.1058 16.697 24.1364 15.7757C22.9433 14.6483 21.4072 14.3321 19.7369 14.8683ZM22.7793 15.7482C23.6443 16.6282 23.9575 17.6182 23.9425 19.3506C23.9276 21.4405 23.3012 22.7466 22.0336 23.3654C21.4221 23.6541 20.4378 23.5304 19.7965 23.0766C18.32 22.0454 17.7981 18.7731 18.7973 16.642C19.6325 14.8408 21.4818 14.4283 22.7793 15.7482Z" fill="white"/>
<path d="M42.2564 14.8683C41.2572 15.1845 40.2729 16.0507 39.8254 16.9994C39.3184 18.0444 39.2438 20.2993 39.6763 21.3442C40.3474 23.0079 41.63 23.8191 43.5539 23.8191C44.5084 23.8191 44.8216 23.7503 45.5672 23.4066C46.4621 22.9941 46.6858 23.0079 46.7007 23.5029C46.7007 23.5991 46.8051 23.6816 46.9393 23.6816C47.163 23.6816 47.1779 23.5579 47.0885 22.8429C47.0437 22.3754 46.999 21.6879 46.999 21.3167C46.999 20.3955 46.7007 20.5055 46.477 21.523C46.3726 21.9904 46.1638 22.4442 45.9401 22.6641C45.4778 23.1316 44.5233 23.5304 43.8969 23.5441C43.3451 23.5441 42.4503 23.2279 42.0327 22.8841C41.5256 22.4717 41.0335 21.3855 40.8694 20.313C40.5711 18.4569 41.1826 16.1607 42.1818 15.432C43.6135 14.4008 45.9103 15.157 46.4024 16.8069C46.5068 17.1507 46.6112 17.5082 46.641 17.5907C46.6709 17.6869 46.7603 17.7694 46.8498 17.7694C46.9841 17.7694 47.0437 17.1369 47.0735 15.3358C47.0735 15.047 46.999 14.8133 46.8946 14.772C46.7753 14.7445 46.7007 14.8408 46.7007 15.0058C46.7007 15.4595 46.4173 15.487 45.5523 15.0745C44.4785 14.5796 43.3451 14.5108 42.2564 14.8683Z" fill="white"/>
<path d="M0.0214844 14.9646C0.0214844 15.0471 0.215364 15.1571 0.453984 15.1983C0.722432 15.2533 0.916311 15.3908 0.975966 15.597C1.1251 16.1195 1.08036 22.7192 0.916311 22.9942C0.841742 23.1317 0.603122 23.2829 0.394329 23.3242C0.185536 23.3792 0.0214844 23.4754 0.0214844 23.5441C0.0214844 23.6266 0.767174 23.6816 1.88571 23.6816C3.69027 23.6816 4.27191 23.5304 3.27269 23.3379C2.45243 23.1729 2.40769 23.0904 2.40769 21.5367V20.1068H3.4964C5.62907 20.1068 6.92657 19.0619 6.92657 17.3707C6.92657 16.147 6.30019 15.3221 5.10708 15.0196C4.31665 14.8133 0.0214844 14.7721 0.0214844 14.9646ZM4.43596 15.3633C5.16674 15.6383 5.59924 16.5457 5.50976 17.6182C5.39045 19.0756 4.79389 19.6668 3.33234 19.7906L2.40769 19.8731V17.7832C2.40769 16.6007 2.48226 15.5695 2.55683 15.4183C2.75071 15.0883 3.66045 15.0608 4.43596 15.3633Z" fill="white"/>
<path d="M7.92383 14.9645C7.92383 15.047 8.11771 15.157 8.35633 15.1983C8.62478 15.2533 8.81866 15.3908 8.87831 15.597C9.02745 16.1195 8.98271 22.7191 8.81866 22.9941C8.74409 23.1316 8.50547 23.2829 8.29667 23.3241C8.08788 23.3791 7.92383 23.4754 7.92383 23.5441C7.92383 23.6266 8.60986 23.6816 9.63891 23.6816C10.5785 23.6816 11.354 23.6404 11.354 23.5716C11.354 23.5166 11.1303 23.3791 10.8618 23.2691L10.3846 23.0629L10.3399 21.303L10.2951 19.5568H11.175C12.383 19.5568 12.5918 19.7905 13.0989 21.6879C13.5762 23.5029 13.8446 23.8191 14.8587 23.8191C15.3956 23.8191 15.6193 23.7366 15.9176 23.4754C16.3352 23.0904 16.2606 22.7054 15.843 23.0491C15.5299 23.3104 15.1719 23.3241 14.9631 23.0904C14.8737 23.0079 14.6798 22.4167 14.5008 21.7979C14.0981 20.2855 13.8297 19.8593 13.1735 19.5981L12.6217 19.3781L13.084 19.2681C13.7402 19.1031 14.5903 18.2781 14.7842 17.6319C15.0526 16.697 14.6649 15.7757 13.7849 15.2808C13.3077 15.0195 12.9647 14.9645 11.6523 14.9233C10.7873 14.8958 9.59417 14.8683 9.01253 14.8408C8.26685 14.8133 7.92383 14.8545 7.92383 14.9645ZM12.5173 15.432C13.7849 16.147 13.6955 18.3469 12.383 18.9656C12.1892 19.0618 11.6374 19.1443 11.175 19.1443H10.31V17.4119C10.31 16.4632 10.3846 15.5695 10.4592 15.4183C10.6829 15.047 11.8462 15.0608 12.5173 15.432Z" fill="white"/>
<path d="M26.5663 14.9783C26.5663 15.0746 26.7155 15.1571 26.9094 15.1571C27.5954 15.1571 27.6103 15.2258 27.5954 19.8181C27.5954 24.6303 27.5507 24.9191 26.7304 25.4278C26.0145 25.8678 24.9706 25.8403 25.3882 25.3865C25.6119 25.1391 25.4925 24.4928 25.2092 24.3278C25.075 24.2591 24.7916 24.2316 24.5828 24.2866C23.7625 24.4653 23.9863 25.579 24.896 25.8953C25.1197 25.9778 25.6715 26.019 26.1488 25.9915C27.2673 25.9228 28.1174 25.4003 28.5499 24.5341C28.8631 23.9291 28.878 23.6129 28.9525 19.7493C29.0271 15.3083 29.0569 15.1571 29.8026 15.1571C30.0114 15.1571 30.1456 15.0883 30.1158 15.0058C30.0263 14.7721 26.5663 14.7583 26.5663 14.9783Z" fill="white"/>
<path d="M31.04 14.9646C31.04 15.0471 31.2339 15.1571 31.4725 15.1983C31.741 15.2533 31.9349 15.3908 31.9945 15.597C32.1437 16.1195 32.0989 22.7192 31.9349 22.9942C31.8603 23.1317 31.6217 23.2829 31.4129 23.3242C31.2041 23.3792 31.04 23.4754 31.04 23.5441C31.04 23.6266 32.3525 23.6816 34.5448 23.6816H38.0644L38.0197 22.4167C37.9749 21.083 37.7214 20.643 37.5424 21.578C37.3784 22.4305 37.1398 22.8567 36.6924 23.0629C36.1704 23.3242 33.8737 23.3517 33.6052 23.1042C33.4859 22.9942 33.4262 22.3617 33.4262 21.1793V19.4194H34.0974C34.9027 19.4194 35.3054 19.7493 35.4396 20.5468C35.4993 20.8355 35.6186 21.0555 35.7081 21.028C35.8572 20.9868 35.8721 17.5082 35.723 17.357C35.6037 17.2607 35.365 17.6732 35.365 17.9894C35.365 18.1544 35.2308 18.4432 35.0518 18.6494C34.7983 18.9381 34.6193 19.0069 34.0825 19.0069H33.4262V17.302C33.4262 15.1846 33.4412 15.1571 35.0071 15.1571C36.6029 15.1571 37.0652 15.4321 37.2442 16.4908C37.3038 16.862 37.4231 17.082 37.5424 17.082C37.7065 17.082 37.7512 16.8207 37.7512 15.9408V14.8133H34.3956C32.0094 14.8133 31.04 14.8546 31.04 14.9646Z" fill="white"/>
<path d="M48.4307 14.8821C48.4157 14.9233 48.4307 15.5283 48.4605 16.2295C48.4903 17.137 48.5649 17.4945 48.6842 17.4532C48.7886 17.4257 48.9079 17.0957 48.9676 16.7382C49.1465 15.597 49.8475 15.0746 51.0853 15.1846L51.5476 15.2258L51.5775 18.8694C51.6222 22.8979 51.5924 23.1042 50.7572 23.3242C49.8176 23.5716 50.3098 23.6816 52.2933 23.6816C54.2321 23.6816 54.8585 23.5441 53.8294 23.3379C52.9346 23.1592 52.9644 23.2829 52.9644 19.0619V15.1571H53.6057C53.9488 15.1571 54.3962 15.2396 54.605 15.3358C55.0375 15.542 55.455 16.2433 55.5744 16.9857C55.7384 17.9207 55.9621 17.4532 55.9919 16.147L56.0218 14.8683L52.2486 14.8408C50.1607 14.8271 48.4456 14.8408 48.4307 14.8821Z" fill="white"/>
<path d="M0.0214844 0.293147C0.0214844 0.390821 0.233111 0.521052 0.493574 0.56989C0.786596 0.635006 0.998223 0.797795 1.06334 1.04198C1.22613 1.66058 1.17729 9.47449 0.998223 9.80007C0.916828 9.96285 0.656364 10.1419 0.428459 10.1908C0.200553 10.2559 0.0214844 10.3698 0.0214844 10.4512C0.0214844 10.5489 0.770317 10.614 1.89357 10.614C2.91914 10.614 3.76565 10.5652 3.76565 10.4838C3.76565 10.4187 3.52146 10.2559 3.22844 10.1256L2.70751 9.88146L2.65868 5.45358C2.62612 1.59546 2.65868 1.00942 2.88658 0.781516C3.01681 0.635006 3.27728 0.521052 3.45635 0.521052C3.61914 0.521052 3.76565 0.423379 3.76565 0.309426C3.76565 0.162915 3.27728 0.114079 1.89357 0.114079C0.623806 0.114079 0.0214844 0.179194 0.0214844 0.293147Z" fill="white"/>
<path d="M5.06738 0.293147C5.06738 0.390821 5.27901 0.521052 5.53947 0.56989C5.83249 0.635006 6.04412 0.797795 6.10924 1.04198C6.27203 1.66058 6.22319 9.47449 6.04412 9.80007C5.96273 9.96285 5.70226 10.1419 5.47436 10.1908C5.24645 10.2559 5.06738 10.3698 5.06738 10.4512C5.06738 10.5489 5.81622 10.614 6.93946 10.614C7.96504 10.614 8.81154 10.5652 8.81154 10.4838C8.81154 10.4187 8.56736 10.2559 8.27434 10.1256L7.75341 9.88146L7.70458 7.63496C7.67202 6.10474 7.72085 5.40474 7.83481 5.40474C8.3069 5.40474 8.73015 5.89311 10.0325 7.86287C11.1069 9.49076 11.3836 10.0442 11.2208 10.1419C11.1069 10.2233 10.9604 10.2884 10.8953 10.2884C10.8139 10.2884 10.765 10.3536 10.765 10.4512C10.765 10.5489 11.4162 10.614 12.3929 10.614C13.5976 10.614 14.0208 10.5652 14.0208 10.4024C14.0208 10.3047 13.8255 10.1094 13.5813 9.99541C13.2883 9.88146 12.458 8.87216 11.3673 7.34194C10.3906 5.99079 9.57666 4.80242 9.52782 4.68847C9.49526 4.5908 10.1139 3.69545 10.9115 2.68616C12.0022 1.335 12.5231 0.830353 12.9464 0.667563C13.9557 0.309426 13.6464 0.114079 12.0348 0.130358C11.0418 0.130358 10.5208 0.195474 10.472 0.325706C10.4394 0.439658 10.5534 0.521052 10.7325 0.521052C11.2046 0.521052 11.4487 0.895469 11.2697 1.35128C11.1069 1.77453 9.38131 4.00475 8.87666 4.46056C8.71387 4.60707 8.37201 4.78614 8.12783 4.83498L7.67202 4.94893V2.99546C7.67202 0.911748 7.80225 0.521052 8.50224 0.521052C8.66503 0.521052 8.81154 0.423379 8.81154 0.309426C8.81154 0.162915 8.32318 0.114079 6.93946 0.114079C5.6697 0.114079 5.06738 0.179194 5.06738 0.293147Z" fill="white"/>
</svg>
