<svg width="55" height="54" viewBox="0 0 55 54" fill="none" xmlns="http://www.w3.org/2000/svg">
<path d="M25.2481 0.0743752C21.4396 0.6106 17.8648 2.82424 15.8161 5.90408C14.5787 7.77399 13.74 10.1664 13.5612 12.3388L13.465 13.4799L12.2275 13.5762C9.0652 13.8374 5.77912 15.4461 3.62048 17.7835C-2.95169 24.8644 -0.201832 36.3726 8.84521 39.6724C10.0414 40.1124 11.9526 40.4973 12.915 40.4973H13.4925L13.5887 41.6935C13.9325 46.3408 16.7648 50.4931 21.0271 52.5967C23.3507 53.7379 25.5919 54.1642 28.2455 53.9442C29.9092 53.8204 31.3391 53.4079 32.989 52.5967C36.8526 50.6993 39.4512 47.2345 40.2761 42.931C40.3861 42.326 40.4824 41.556 40.4824 41.1986V40.5386L41.6236 40.4561C47.137 40.0299 51.9218 36.1251 53.4755 30.8178C55.3179 24.4519 52.3755 17.7835 46.4771 14.9236C44.8134 14.1124 43.4385 13.7137 41.7886 13.5762L40.5511 13.4799L40.4411 12.325C39.8224 5.50535 34.3914 0.308113 27.5855 0.0193787C26.7743 -0.0218697 25.7294 0.00562668 25.2481 0.0743752ZM28.768 1.99928C33.1815 2.71424 36.8388 5.91783 38.1312 10.1801C38.475 11.3213 38.7087 13.5487 38.5025 13.6174C38.42 13.6449 37.8288 13.7962 37.1825 13.9612C34.8314 14.5524 32.7278 15.7761 30.9266 17.591C29.1667 19.3509 27.8468 21.7845 27.3793 24.0807C27.1318 25.3319 26.8843 25.3319 26.6368 24.0807C26.1693 21.7845 24.8494 19.3509 23.0895 17.591C21.2608 15.7348 19.0472 14.4699 16.6548 13.9062L15.4174 13.6174L15.4999 12.38C15.8161 7.37526 19.9959 2.86549 25.1381 2.01303C26.1418 1.84803 27.7643 1.83429 28.768 1.99928ZM13.7125 15.8861C14.3862 18.5809 15.2111 20.3409 16.6548 22.1008C18.3047 24.1357 21.0821 25.8818 23.7082 26.528C25.0557 26.8718 25.3719 27.0918 24.7119 27.243C23.447 27.518 22.2095 27.903 21.4396 28.2467C17.576 30.0066 14.6612 33.6502 13.8087 37.775L13.6575 38.5724H12.9013C10.2751 38.5724 7.37404 37.2663 5.28414 35.1489C2.47928 32.289 1.32434 28.5354 2.10805 24.7406C2.61678 22.2658 3.70297 20.3409 5.60038 18.5397C7.40154 16.8485 9.80766 15.7348 12.2 15.4736C13.5475 15.3361 13.575 15.3361 13.7125 15.8861ZM43.0947 15.7073C45.2396 16.1473 47.247 17.3023 48.9107 19.0347C53.4067 23.7369 53.2005 30.9828 48.457 35.4651C46.4633 37.335 43.5622 38.5724 41.1148 38.5724H40.3586L40.2074 37.775C39.3549 33.6502 36.4401 30.0066 32.5765 28.2467C31.8066 27.903 30.5691 27.518 29.3042 27.243C28.6442 27.0918 28.9605 26.8718 30.3079 26.528C35.2576 25.2906 39.2449 21.1246 40.2074 16.1886L40.3861 15.3224L41.2248 15.4049C41.6786 15.4461 42.531 15.5836 43.0947 15.7073ZM16.7786 15.8998C18.731 16.5048 20.1059 17.316 21.5496 18.7322C22.5533 19.7084 23.4195 20.9183 23.9695 22.0595C24.4232 23.022 24.8907 24.6444 24.7669 24.7819C24.6019 24.9331 23.007 24.4244 21.8796 23.8607C19.2397 22.5407 17.2048 20.2996 16.1598 17.536C15.7199 16.3673 15.5411 15.6111 15.7199 15.6111C15.7886 15.6111 16.2698 15.7486 16.7786 15.8998ZM38.3237 16.0511C38.035 17.6047 36.8663 19.8459 35.6151 21.2071C34.1714 22.7882 32.1915 24.0532 30.3216 24.6031C29.0429 24.9744 29.0017 24.9194 29.5379 23.3657C30.3766 20.8908 32.0128 18.7597 34.1577 17.3298C35.1476 16.6698 35.6976 16.4086 37.1138 15.9411C38.3925 15.5148 38.4337 15.5148 38.3237 16.0511ZM27.3105 29.6354C27.7368 32.1378 29.6754 35.4926 31.6416 37.1425C33.2777 38.5312 35.2714 39.5761 37.1138 40.0161C38.7775 40.4286 38.6537 40.2911 38.53 41.6523C38.2412 45.0209 36.3713 48.1832 33.5665 50.1081C32.5903 50.7681 30.8029 51.5655 29.6204 51.8543C28.218 52.198 25.7981 52.198 24.3957 51.8543C20.9034 50.9881 17.961 48.5957 16.4898 45.3921C15.9399 44.2097 15.4861 42.436 15.4449 41.2673C15.4036 40.3461 15.3624 40.3873 16.6961 40.0849C21.1371 39.0949 24.9182 35.4926 26.3756 30.9003C26.5681 30.2679 26.7331 29.6216 26.7331 29.4429C26.7331 28.6867 27.173 28.8379 27.3105 29.6354ZM24.4644 30.6803C23.5157 33.6089 21.1646 36.2213 18.3185 37.5275C17.3423 37.9812 15.7336 38.4762 15.6236 38.3662C15.4999 38.2562 16.1873 36.2763 16.6961 35.2726C17.3423 34.0214 17.686 33.5402 18.7997 32.399C20.2159 30.9553 21.9621 29.9104 23.8732 29.3742C24.9457 29.0717 24.9732 29.1129 24.4644 30.6803ZM31.9028 30.0341C34.2264 31.1203 36.1788 33.0177 37.32 35.2726C37.8288 36.2763 38.5162 38.2562 38.3925 38.3662C38.2825 38.4762 36.6738 37.9812 35.6976 37.5275C32.8928 36.2351 30.6104 33.7327 29.6067 30.8316C29.3867 30.2129 29.2079 29.5666 29.2079 29.4017V29.0992L30.1154 29.3604C30.6241 29.5116 31.4216 29.8141 31.9028 30.0341Z" fill="white"/>
</svg>
