<svg width="76" height="60" viewBox="0 0 76 60" fill="none" xmlns="http://www.w3.org/2000/svg">
<path d="M61.4214 30.66C69.8321 30.66 75.5 36.6164 75.5 45.4418C75.5 53.3836 68.9857 60 60.1625 60C50.4982 60 43.3571 52.0582 43.3571 39.9273C43.3571 12.3545 63.1036 1.32545 75.5 0V12.1309C67.0946 13.6745 57.6446 22.2764 57.2214 31.7673C57.6446 31.5491 59.3214 30.66 61.4214 30.66ZM18.5696 30.66C26.9696 30.66 32.6429 36.6164 32.6429 45.4418C32.6429 53.3836 26.1286 60 17.3054 60C7.64107 60 0.5 52.0582 0.5 39.9273C0.5 12.3545 20.2464 1.32545 32.6429 0V12.1309C24.2375 13.6745 14.7875 22.2764 14.3643 31.7673C14.7875 31.5491 16.4643 30.66 18.5696 30.66Z" fill="black"/>
</svg>
