<svg width="34" height="37" viewBox="0 0 34 37" fill="none" xmlns="http://www.w3.org/2000/svg">
<mask id="mask0_1096_1846" style="mask-type:alpha" maskUnits="userSpaceOnUse" x="9" y="13" width="25" height="24">
<rect x="9.30371" y="13" width="24" height="24" fill="#D9D9D9"/>
</mask>
<g mask="url(#mask0_1096_1846)">
<path d="M16.6691 29.75H18.1691V23.25H16.6691V29.75ZM20.5537 29.75H22.0537V20.25H20.5537V29.75ZM24.4383 29.75H25.9383V26.25H24.4383V29.75ZM14.6114 33.5C14.1063 33.5 13.6787 33.325 13.3287 32.975C12.9787 32.625 12.8037 32.1974 12.8037 31.6923V18.3077C12.8037 17.8026 12.9787 17.375 13.3287 17.025C13.6787 16.675 14.1063 16.5 14.6114 16.5H27.996C28.5011 16.5 28.9287 16.675 29.2787 17.025C29.6287 17.375 29.8037 17.8026 29.8037 18.3077V31.6923C29.8037 32.1974 29.6287 32.625 29.2787 32.975C28.9287 33.325 28.5011 33.5 27.996 33.5H14.6114ZM14.6114 32H27.996C28.0729 32 28.1434 31.968 28.2075 31.9039C28.2716 31.8397 28.3037 31.7692 28.3037 31.6923V18.3077C28.3037 18.2308 28.2716 18.1603 28.2075 18.0962C28.1434 18.0321 28.0729 18 27.996 18H14.6114C14.5345 18 14.464 18.0321 14.3998 18.0962C14.3357 18.1603 14.3037 18.2308 14.3037 18.3077V31.6923C14.3037 31.7692 14.3357 31.8397 14.3998 31.9039C14.464 31.968 14.5345 32 14.6114 32Z" fill="white"/>
</g>
<path d="M5.48377 16.126C4.95177 16.126 4.41977 16.0467 3.88777 15.888C3.3651 15.7293 2.8891 15.482 2.45977 15.146C2.34777 15.0713 2.2731 14.9827 2.23577 14.88C2.19844 14.7773 2.19377 14.6747 2.22177 14.572C2.24977 14.4693 2.3011 14.3853 2.37577 14.32C2.45044 14.2453 2.5391 14.2033 2.64177 14.194C2.75377 14.1847 2.87044 14.222 2.99177 14.306C3.37444 14.5767 3.7711 14.7773 4.18177 14.908C4.59244 15.0387 5.02177 15.104 5.46977 15.104C5.9271 15.104 6.3191 15.02 6.64577 14.852C6.98177 14.6747 7.23377 14.432 7.40177 14.124C7.5791 13.8067 7.66777 13.438 7.66777 13.018C7.66777 12.374 7.4811 11.8467 7.10777 11.436C6.73444 11.0253 6.2211 10.82 5.56777 10.82C5.16644 10.82 4.79777 10.8947 4.46177 11.044C4.12577 11.1933 3.81777 11.4313 3.53777 11.758C3.47244 11.8327 3.3931 11.898 3.29977 11.954C3.21577 12.0007 3.11777 12.024 3.00577 12.024C2.8471 12.024 2.7211 11.982 2.62777 11.898C2.54377 11.8047 2.50177 11.6833 2.50177 11.534V6.662C2.50177 6.48467 2.54844 6.354 2.64177 6.27C2.7351 6.17667 2.86577 6.13 3.03377 6.13H7.79377C7.9711 6.13 8.10177 6.172 8.18577 6.256C8.2791 6.34 8.32577 6.46133 8.32577 6.62C8.32577 6.77867 8.2791 6.9 8.18577 6.984C8.10177 7.068 7.9711 7.11 7.79377 7.11H3.63577V11.044H3.32777C3.57044 10.652 3.90644 10.3533 4.33577 10.148C4.7651 9.93333 5.24577 9.826 5.77777 9.826C6.4031 9.826 6.93977 9.95667 7.38777 10.218C7.8451 10.4793 8.1951 10.848 8.43777 11.324C8.68977 11.7907 8.81577 12.3367 8.81577 12.962C8.81577 13.578 8.68044 14.124 8.40977 14.6C8.1391 15.076 7.75644 15.4493 7.26177 15.72C6.7671 15.9907 6.17444 16.126 5.48377 16.126Z" fill="white"/>
</svg>
