<svg width="34" height="37" viewBox="0 0 34 37" fill="none" xmlns="http://www.w3.org/2000/svg">
<mask id="mask0_1096_1815" style="mask-type:alpha" maskUnits="userSpaceOnUse" x="9" y="13" width="25" height="24">
<rect x="9.30371" y="13" width="24" height="24" fill="#D9D9D9"/>
</mask>
<g mask="url(#mask0_1096_1815)">
<path d="M20.8594 30.4807C19.4325 30.3589 18.2332 29.7775 17.2614 28.7365C16.2896 27.6955 15.8037 26.45 15.8037 25C15.8037 23.4722 16.3384 22.1736 17.4079 21.1042C18.4773 20.0347 19.7759 19.5 21.3037 19.5C22.7537 19.5 23.9992 19.9843 25.0402 20.9529C26.0812 21.9215 26.6626 23.1192 26.7844 24.5461L25.1941 24.075C24.9779 23.175 24.5124 22.4375 23.7975 21.8625C23.0826 21.2875 22.2513 21 21.3037 21C20.2037 21 19.262 21.3916 18.4787 22.175C17.6954 22.9583 17.3037 23.9 17.3037 25C17.3037 25.95 17.5928 26.7833 18.171 27.5C18.7492 28.2166 19.4851 28.6833 20.3787 28.9L20.8594 30.4807ZM22.0594 34.4596C21.9335 34.4865 21.8075 34.5 21.6816 34.5H21.3037C19.9895 34.5 18.7545 34.2506 17.5987 33.752C16.4429 33.2533 15.4375 32.5765 14.5825 31.7217C13.7275 30.8669 13.0506 29.8616 12.5518 28.706C12.0531 27.5504 11.8037 26.3156 11.8037 25.0017C11.8037 23.6877 12.053 22.4527 12.5517 21.2966C13.0504 20.1404 13.7271 19.1347 14.582 18.2795C15.4368 17.4243 16.4421 16.7472 17.5977 16.2483C18.7533 15.7494 19.9881 15.5 21.302 15.5C22.6159 15.5 23.851 15.7494 25.0071 16.2481C26.1633 16.7469 27.1689 17.4238 28.0242 18.2788C28.8794 19.1338 29.5565 20.1392 30.0553 21.295C30.5542 22.4508 30.8037 23.6858 30.8037 25V25.3731C30.8037 25.4974 30.7902 25.6218 30.7633 25.7461L29.3037 25.3V25C29.3037 22.7666 28.5287 20.875 26.9787 19.325C25.4287 17.775 23.537 17 21.3037 17C19.0704 17 17.1787 17.775 15.6287 19.325C14.0787 20.875 13.3037 22.7666 13.3037 25C13.3037 27.2333 14.0787 29.125 15.6287 30.675C17.1787 32.225 19.0704 33 21.3037 33H21.6037L22.0594 34.4596ZM29.444 34.6441L24.9094 30.0999L23.8229 33.3845L21.3037 25L29.6882 27.5192L26.4036 28.6057L30.9479 33.1403L29.444 34.6441Z" fill="white"/>
</g>
<path d="M2.87977 16C2.67444 16 2.52044 15.9533 2.41777 15.86C2.32444 15.7573 2.27777 15.622 2.27777 15.454C2.27777 15.3513 2.3011 15.2533 2.34777 15.16C2.40377 15.0573 2.47844 14.9547 2.57177 14.852L5.70777 11.492C6.18377 10.9787 6.52444 10.5073 6.72977 10.078C6.94444 9.63933 7.05177 9.196 7.05177 8.748C7.05177 8.188 6.8791 7.76333 6.53377 7.474C6.19777 7.17533 5.7031 7.026 5.04977 7.026C4.62977 7.026 4.2331 7.09133 3.85977 7.222C3.48644 7.35267 3.1271 7.55333 2.78177 7.824C2.66044 7.91733 2.54844 7.95933 2.44577 7.95C2.35244 7.94067 2.26844 7.90333 2.19377 7.838C2.1191 7.77267 2.06777 7.68867 2.03977 7.586C2.01177 7.48333 2.01177 7.38067 2.03977 7.278C2.0771 7.17533 2.15177 7.082 2.26377 6.998C2.62777 6.69933 3.06644 6.46133 3.57977 6.284C4.0931 6.09733 4.61577 6.004 5.14777 6.004C5.81044 6.004 6.37044 6.10667 6.82777 6.312C7.2851 6.51733 7.63044 6.82067 7.86377 7.222C8.0971 7.614 8.21377 8.09467 8.21377 8.664C8.21377 9.056 8.14844 9.44333 8.01777 9.826C7.89644 10.1993 7.7051 10.582 7.44377 10.974C7.19177 11.366 6.86044 11.772 6.44977 12.192L3.46777 15.342V15.02H8.18577C8.3631 15.02 8.49377 15.062 8.57777 15.146C8.6711 15.2207 8.71777 15.3373 8.71777 15.496C8.71777 15.664 8.6711 15.79 8.57777 15.874C8.49377 15.958 8.3631 16 8.18577 16H2.87977Z" fill="white"/>
</svg>
