<svg width="33" height="37" viewBox="0 0 33 37" fill="none" xmlns="http://www.w3.org/2000/svg">
<mask id="mask0_1096_1826" style="mask-type:alpha" maskUnits="userSpaceOnUse" x="8" y="13" width="25" height="24">
<rect x="8.80371" y="13" width="24" height="24" fill="#D9D9D9"/>
</mask>
<g mask="url(#mask0_1096_1826)">
<path d="M26.2807 33.6039L19.9807 27.2731C19.6281 27.4256 19.2697 27.5433 18.9055 27.626C18.5412 27.7086 18.1548 27.75 17.7461 27.75C16.1489 27.75 14.7912 27.191 13.6732 26.0729C12.5551 24.9549 11.9961 23.5972 11.9961 22C11.9961 21.4833 12.0618 20.9894 12.1932 20.5183C12.3246 20.0471 12.5115 19.5988 12.7538 19.1731L16.3461 22.7462L18.4922 20.6L14.9384 17.0269C15.3641 16.7846 15.8095 16.5946 16.2749 16.4568C16.7402 16.3189 17.2306 16.25 17.7461 16.25C19.3433 16.25 20.7009 16.8091 21.819 17.9271C22.937 19.0452 23.496 20.4028 23.496 22C23.496 22.4218 23.4563 22.8148 23.3768 23.1789C23.2973 23.543 23.1781 23.8949 23.0191 24.2346L29.3499 30.5347C29.5243 30.7112 29.6114 30.9246 29.6114 31.1748C29.6114 31.4249 29.525 31.6365 29.352 31.8094L27.5363 33.6252C27.3633 33.7981 27.1544 33.8814 26.9095 33.875C26.6647 33.8686 26.4551 33.7782 26.2807 33.6039ZM26.9192 32.1039L27.8346 31.1885L21.1749 24.5289C21.4557 24.1827 21.6628 23.7888 21.7961 23.3471C21.9294 22.9055 21.9961 22.4564 21.9961 22C21.9961 20.891 21.5999 19.9096 20.8076 19.0558C20.0153 18.2019 19.0127 17.7833 17.7999 17.8L19.9672 19.9673C20.148 20.1481 20.2384 20.359 20.2384 20.6C20.2384 20.841 20.148 21.0519 19.9672 21.2327L16.9788 24.2211C16.798 24.4019 16.5871 24.4923 16.3461 24.4923C16.1051 24.4923 15.8942 24.4019 15.7134 24.2211L13.546 22.0538C13.5486 23.3372 13.98 24.3574 14.8403 25.1144C15.7005 25.8715 16.6691 26.25 17.7461 26.25C18.1837 26.25 18.6213 26.185 19.0589 26.0548C19.4965 25.9247 19.8967 25.7212 20.2595 25.4443L26.9192 32.1039Z" fill="white"/>
</g>
<path d="M4.66177 16.126C4.12044 16.126 3.57444 16.0467 3.02377 15.888C2.48244 15.7293 2.0111 15.496 1.60977 15.188C1.48844 15.104 1.4091 15.0107 1.37177 14.908C1.33444 14.796 1.3251 14.6933 1.34377 14.6C1.37177 14.4973 1.4231 14.4133 1.49777 14.348C1.57244 14.2733 1.6611 14.2313 1.76377 14.222C1.87577 14.2127 1.9971 14.25 2.12777 14.334C2.53844 14.6047 2.9491 14.8007 3.35977 14.922C3.77044 15.0433 4.1951 15.104 4.63377 15.104C5.10977 15.104 5.5111 15.034 5.83777 14.894C6.16444 14.754 6.41177 14.5487 6.57977 14.278C6.74777 13.998 6.83177 13.6573 6.83177 13.256C6.83177 12.6773 6.64044 12.2387 6.25777 11.94C5.8751 11.6413 5.31977 11.492 4.59177 11.492H3.59777C3.42044 11.492 3.2851 11.45 3.19177 11.366C3.09844 11.2727 3.05177 11.1467 3.05177 10.988C3.05177 10.8387 3.09844 10.722 3.19177 10.638C3.2851 10.5447 3.42044 10.498 3.59777 10.498H4.49377C4.9231 10.498 5.2871 10.4233 5.58577 10.274C5.89377 10.1247 6.13177 9.91467 6.29977 9.644C6.46777 9.364 6.55177 9.028 6.55177 8.636C6.55177 8.11333 6.38377 7.71667 6.04777 7.446C5.71177 7.166 5.22644 7.026 4.59177 7.026C4.17177 7.026 3.7751 7.08667 3.40177 7.208C3.02844 7.32933 2.65977 7.53467 2.29577 7.824C2.18377 7.908 2.07177 7.95 1.95977 7.95C1.8571 7.94067 1.76844 7.908 1.69377 7.852C1.62844 7.78667 1.5771 7.70267 1.53977 7.6C1.51177 7.49733 1.51644 7.39467 1.55377 7.292C1.5911 7.18 1.67044 7.07733 1.79177 6.984C2.1651 6.66667 2.60377 6.424 3.10777 6.256C3.61177 6.088 4.12977 6.004 4.66177 6.004C5.29644 6.004 5.83777 6.10667 6.28577 6.312C6.7431 6.508 7.0931 6.79733 7.33577 7.18C7.57844 7.55333 7.69977 8.006 7.69977 8.538C7.69977 8.93933 7.62044 9.308 7.46177 9.644C7.31244 9.97067 7.09777 10.2507 6.81777 10.484C6.5471 10.7173 6.21577 10.8853 5.82377 10.988V10.834C6.5051 10.946 7.03244 11.226 7.40577 11.674C7.78844 12.1127 7.97977 12.668 7.97977 13.34C7.97977 13.9093 7.84444 14.404 7.57377 14.824C7.31244 15.2347 6.93444 15.5567 6.43977 15.79C5.9451 16.014 5.35244 16.126 4.66177 16.126Z" fill="white"/>
</svg>
