<svg width="33" height="37" viewBox="0 0 33 37" fill="none" xmlns="http://www.w3.org/2000/svg">
<mask id="mask0_1096_1836" style="mask-type:alpha" maskUnits="userSpaceOnUse" x="8" y="13" width="25" height="24">
<rect x="8.80371" y="13" width="24" height="24" fill="#D9D9D9"/>
</mask>
<g mask="url(#mask0_1096_1836)">
<path d="M14.2226 23.6212L16.4226 24.552C16.6944 24.0084 16.9842 23.4831 17.2919 22.976C17.5996 22.4689 17.9387 21.9699 18.3092 21.4789L16.8419 21.1943C16.7906 21.1814 16.7409 21.183 16.6928 21.1991C16.6447 21.2151 16.6015 21.2423 16.563 21.2808L14.2226 23.6212ZM17.6187 25.4943L20.4591 28.3193C21.204 28.0077 21.9764 27.577 22.7764 27.027C23.5764 26.477 24.336 25.8423 25.0553 25.1231C26.1771 24.0013 27.0447 22.7792 27.6582 21.4568C28.2716 20.1343 28.5751 18.7738 28.5687 17.375C27.17 17.3686 25.8085 17.6722 24.4841 18.2856C23.1598 18.8991 21.9367 19.7667 20.8149 20.8885C20.0957 21.6077 19.4611 22.3689 18.9111 23.1722C18.3611 23.9754 17.9303 24.7494 17.6187 25.4943ZM22.4342 23.4942C22.0957 23.1558 21.9265 22.7442 21.9265 22.2596C21.9265 21.775 22.0957 21.3635 22.4342 21.025C22.7726 20.6866 23.1883 20.5174 23.6813 20.5174C24.1742 20.5174 24.5899 20.6866 24.9284 21.025C25.2668 21.3635 25.436 21.775 25.436 22.2596C25.436 22.7442 25.2668 23.1558 24.9284 23.4942C24.5899 23.8327 24.1742 24.0019 23.6813 24.0019C23.1883 24.0019 22.7726 23.8327 22.4342 23.4942ZM22.3226 31.7308L24.663 29.3904C24.7014 29.3519 24.7287 29.3087 24.7447 29.2606C24.7607 29.2125 24.7623 29.1628 24.7495 29.1115L24.4649 27.6442C23.9739 28.0147 23.4748 28.3513 22.9678 28.6538C22.4607 28.9564 21.9354 29.2436 21.3918 29.5154L22.3226 31.7308ZM29.936 16.002C30.1501 17.9289 29.9222 19.7552 29.2524 21.4808C28.5825 23.2064 27.4803 24.8366 25.9457 26.3712L25.7726 26.5442L26.2245 28.8077C26.2847 29.109 26.2713 29.4019 26.1841 29.6865C26.0969 29.9711 25.9463 30.2205 25.7322 30.4346L21.811 34.3461L19.9322 29.9308L16.013 26.0116L11.5977 24.1231L15.4938 20.2116C15.7079 19.9975 15.9598 19.8453 16.2496 19.7549C16.5393 19.6645 16.8348 19.6494 17.1361 19.7097L19.4188 20.1712C19.4508 20.1392 19.4781 20.1103 19.5005 20.0847C19.5229 20.059 19.5502 20.0302 19.5822 19.9981C21.1168 18.4635 22.7444 17.3603 24.4649 16.6885C26.1854 16.0167 28.0091 15.7879 29.936 16.002ZM13.3246 29.0712C13.8117 28.584 14.4056 28.3394 15.1063 28.3375C15.8069 28.3356 16.4008 28.5782 16.888 29.0654C17.3752 29.5526 17.6162 30.1465 17.6111 30.8471C17.6059 31.5477 17.3598 32.1416 16.8726 32.6288C16.4944 33.007 15.8739 33.3317 15.0111 33.6028C14.1483 33.874 13.0412 34.091 11.69 34.2538C11.8528 32.9025 12.0714 31.7955 12.3457 30.9327C12.6201 30.0699 12.9464 29.4494 13.3246 29.0712ZM14.3938 30.1346C14.2143 30.3141 14.0412 30.6231 13.8746 31.0615C13.7079 31.5 13.5944 31.9474 13.5342 32.4038C13.9906 32.3436 14.438 32.2311 14.8765 32.0663C15.3149 31.9016 15.6239 31.7295 15.8034 31.55C16.0034 31.35 16.1085 31.1099 16.1188 30.8298C16.129 30.5497 16.0342 30.3096 15.8342 30.1096C15.6342 29.9096 15.3941 29.8138 15.114 29.8221C14.8338 29.8304 14.5938 29.9346 14.3938 30.1346Z" fill="white"/>
</g>
<path d="M6.42577 16.098C6.24844 16.098 6.10844 16.0467 6.00577 15.944C5.9031 15.8413 5.85177 15.6967 5.85177 15.51V13.886H1.83377C1.6471 13.886 1.49777 13.844 1.38577 13.76C1.2831 13.6667 1.23177 13.536 1.23177 13.368C1.23177 13.2653 1.2551 13.1627 1.30177 13.06C1.34844 12.948 1.43244 12.808 1.55377 12.64L5.82377 6.424C5.90777 6.29333 6.0011 6.19533 6.10377 6.13C6.20644 6.06467 6.32777 6.032 6.46777 6.032C6.6171 6.032 6.7431 6.07867 6.84577 6.172C6.95777 6.26533 7.01377 6.41467 7.01377 6.62V12.906H8.03577C8.2131 12.906 8.34844 12.948 8.44177 13.032C8.5351 13.116 8.58177 13.2373 8.58177 13.396C8.58177 13.5547 8.5351 13.676 8.44177 13.76C8.34844 13.844 8.2131 13.886 8.03577 13.886H7.01377V15.51C7.01377 15.6967 6.96244 15.8413 6.85977 15.944C6.7571 16.0467 6.61244 16.098 6.42577 16.098ZM5.85177 12.906V7.474H6.18777L2.26777 13.214V12.906H5.85177Z" fill="white"/>
</svg>
