<svg width="34" height="37" viewBox="0 0 34 37" fill="none" xmlns="http://www.w3.org/2000/svg">
<mask id="mask0_1096_1805" style="mask-type:alpha" maskUnits="userSpaceOnUse" x="9" y="13" width="25" height="24">
<rect x="9.30371" y="13" width="24" height="24" fill="#D9D9D9"/>
</mask>
<g mask="url(#mask0_1096_1805)">
<path d="M20.4575 26.6538C21.155 26.6538 21.746 26.4115 22.2306 25.9269C22.7152 25.4423 22.9575 24.8513 22.9575 24.1538C22.9575 23.4564 22.7152 22.8653 22.2306 22.3807C21.746 21.8961 21.155 21.6538 20.4575 21.6538C19.7601 21.6538 19.1691 21.8961 18.6844 22.3807C18.1998 22.8653 17.9575 23.4564 17.9575 24.1538C17.9575 24.8513 18.1998 25.4423 18.6844 25.9269C19.1691 26.4115 19.7601 26.6538 20.4575 26.6538ZM25.3883 30.1538L22.696 27.4519C22.3627 27.6878 22.0069 27.8637 21.6287 27.9798C21.2505 28.0958 20.8601 28.1538 20.4575 28.1538C19.3447 28.1538 18.3998 27.7653 17.6229 26.9884C16.846 26.2115 16.4575 25.2666 16.4575 24.1538C16.4575 23.041 16.846 22.0961 17.6229 21.3192C18.3998 20.5423 19.3447 20.1538 20.4575 20.1538C21.5703 20.1538 22.5152 20.5423 23.2921 21.3192C24.0691 22.0961 24.4575 23.041 24.4575 24.1538C24.4575 24.5564 24.3969 24.9468 24.2758 25.325C24.1546 25.7032 23.9761 26.0589 23.7402 26.3923L26.4575 29.1L25.3883 30.1538ZM14.6114 33.5C14.1063 33.5 13.6787 33.325 13.3287 32.975C12.9787 32.625 12.8037 32.1974 12.8037 31.6923V28H14.3037V31.6923C14.3037 31.7692 14.3357 31.8397 14.3998 31.9038C14.464 31.9679 14.5345 32 14.6114 32H18.3037V33.5H14.6114ZM24.3037 33.5V32H27.996C28.0729 32 28.1434 31.9679 28.2075 31.9038C28.2716 31.8397 28.3037 31.7692 28.3037 31.6923V28H29.8037V31.6923C29.8037 32.1974 29.6287 32.625 29.2787 32.975C28.9287 33.325 28.5011 33.5 27.996 33.5H24.3037ZM12.8037 22V18.3077C12.8037 17.8026 12.9787 17.375 13.3287 17.025C13.6787 16.675 14.1063 16.5 14.6114 16.5H18.3037V18H14.6114C14.5345 18 14.464 18.032 14.3998 18.0961C14.3357 18.1602 14.3037 18.2308 14.3037 18.3077V22H12.8037ZM28.3037 22V18.3077C28.3037 18.2308 28.2716 18.1602 28.2075 18.0961C28.1434 18.032 28.0729 18 27.996 18H24.3037V16.5H27.996C28.5011 16.5 28.9287 16.675 29.2787 17.025C29.6287 17.375 29.8037 17.8026 29.8037 18.3077V22H28.3037Z" fill="white"/>
</g>
<path d="M3.24377 16C3.07577 16 2.9451 15.958 2.85177 15.874C2.75844 15.7807 2.71177 15.6547 2.71177 15.496C2.71177 15.3373 2.75844 15.2207 2.85177 15.146C2.9451 15.062 3.07577 15.02 3.24377 15.02H5.06377V7.082H5.66577L3.63577 8.426C3.51444 8.49133 3.39777 8.51933 3.28577 8.51C3.1831 8.50067 3.09444 8.46333 3.01977 8.398C2.95444 8.32333 2.90777 8.23933 2.87977 8.146C2.85177 8.04333 2.85644 7.94067 2.89377 7.838C2.9311 7.726 3.01044 7.63267 3.13177 7.558L5.06377 6.284C5.1851 6.20933 5.30177 6.14867 5.41377 6.102C5.52577 6.05533 5.63777 6.032 5.74977 6.032C5.88044 6.032 5.98777 6.074 6.07177 6.158C6.1651 6.23267 6.21177 6.354 6.21177 6.522V15.02H7.89177C8.05977 15.02 8.19044 15.062 8.28377 15.146C8.3771 15.2207 8.42377 15.3373 8.42377 15.496C8.42377 15.664 8.3771 15.79 8.28377 15.874C8.19044 15.958 8.05977 16 7.89177 16H3.24377Z" fill="white"/>
</svg>
